# MagicaVoxel @ Ephtracy

# group
o 

# material
mtllib gaD19+1.mtl
usemtl palette

# normals
vn -1 0 0
vn 1 0 0
vn 0 0 1
vn 0 0 -1
vn 0 -1 0
vn 0 1 0

# texcoords
vt 0.0292969 0.5
vt 0.0917969 0.5
vt 0.841797 0.5
vt 0.845703 0.5
vt 0.849609 0.5
vt 0.994141 0.5

# verts
v -0.6 0 0.6
v -0.6 0 0.0999999
v -0.6 0.1 0.6
v -0.6 0.1 0.0999999
v -0.6 0.6 0.5
v -0.6 0.6 -1.19209e-07
v -0.6 0.7 0.5
v -0.6 0.7 -1.19209e-07
v -0.6 0.8 0.5
v -0.6 0.8 -1.19209e-07
v -0.5 0.1 0.3
v -0.5 0.1 0.2
v -0.5 0.5 0.8
v -0.5 0.5 0.3
v -0.5 0.5 0.2
v -0.5 0.5 -0.2
v -0.5 0.6 0.5
v -0.5 0.6 -1.19209e-07
v -0.5 0.7 0.5
v -0.5 0.7 -1.19209e-07
v -0.5 0.8 0.5
v -0.5 0.8 -1.19209e-07
v -0.5 0.9 0.0999999
v -0.5 0.9 -0.2
v -0.5 1 0.2
v -0.5 1 0.0999999
v -0.5 1.2 0.8
v -0.5 1.2 0.2
v -0.5 1.3 0.6
v -0.5 1.3 0.5
v -0.5 1.4 0.6
v -0.5 1.4 0.5
v -0.5 1.6 0.8
v -0.5 1.6 0.2
v -0.4 0 0.6
v -0.4 0 0.4
v -0.4 0.1 0.6
v -0.4 0.1 0.4
v -0.4 0.6 -0.2
v -0.4 0.6 -0.3
v -0.4 0.8 -0.2
v -0.4 0.8 -0.3
v -0.3 1 1
v -0.3 1 0.8
v -0.3 1.2 1.2
v -0.3 1.2 1
v -0.3 1.2 0.8
v -0.3 1.4 1.2
v -0.3 1.4 0.8
v -0.3 1.6 0.7
v -0.3 1.6 0.4
v -0.3 1.8 0.7
v -0.3 1.8 0.4
v -0.0999999 0 0.6
v -0.0999999 0 0.0999999
v -0.0999999 0.1 0.6
v -0.0999999 0.1 0.0999999
v 5.96046e-08 0.1 0.3
v 5.96046e-08 0.1 0.2
v 5.96046e-08 0.5 0.3
v 5.96046e-08 0.5 0.2
v 0.1 0 0.6
v 0.1 0 0.4
v 0.1 0.1 0.6
v 0.1 0.1 0.4
v -0.5 0 0.6
v -0.5 0 0.4
v -0.5 0.1 0.6
v -0.5 0.1 0.4
v -0.4 0.1 0.3
v -0.4 0.1 0.2
v -0.4 0.5 0.3
v -0.4 0.5 0.2
v -0.3 0 0.6
v -0.3 0 0.0999999
v -0.3 0.1 0.6
v -0.3 0.1 0.0999999
v -0.0999999 1 1
v -0.0999999 1 0.8
v -0.0999999 1.2 1.2
v -0.0999999 1.2 1
v -0.0999999 1.2 0.8
v -0.0999999 1.4 1.2
v -0.0999999 1.4 0.8
v -0.0999999 1.6 0.7
v -0.0999999 1.6 0.4
v -0.0999999 1.8 0.7
v -0.0999999 1.8 0.4
v 5.96046e-08 0 0.6
v 5.96046e-08 0 0.4
v 5.96046e-08 0.1 0.6
v 5.96046e-08 0.1 0.4
v 5.96046e-08 0.6 -0.2
v 5.96046e-08 0.6 -0.3
v 5.96046e-08 0.8 -0.2
v 5.96046e-08 0.8 -0.3
v 0.1 0.1 0.3
v 0.1 0.1 0.2
v 0.1 0.5 0.8
v 0.1 0.5 0.3
v 0.1 0.5 0.2
v 0.1 0.5 -0.2
v 0.1 0.6 0.5
v 0.1 0.6 -1.19209e-07
v 0.1 0.7 0.5
v 0.1 0.7 -1.19209e-07
v 0.1 0.8 0.5
v 0.1 0.8 -1.19209e-07
v 0.1 0.9 0.0999999
v 0.1 0.9 -0.2
v 0.1 1 0.2
v 0.1 1 0.0999999
v 0.1 1.2 0.8
v 0.1 1.2 0.2
v 0.1 1.3 0.6
v 0.1 1.3 0.5
v 0.1 1.4 0.6
v 0.1 1.4 0.5
v 0.1 1.6 0.8
v 0.1 1.6 0.2
v 0.2 0 0.6
v 0.2 0 0.0999999
v 0.2 0.1 0.6
v 0.2 0.1 0.0999999
v 0.2 0.6 0.5
v 0.2 0.6 -1.19209e-07
v 0.2 0.7 0.5
v 0.2 0.7 -1.19209e-07
v 0.2 0.8 0.5
v 0.2 0.8 -1.19209e-07
v -0.3 1.2 1.2
v -0.3 1.4 1.2
v -0.0999999 1.2 1.2
v -0.0999999 1.4 1.2
v -0.3 1 1
v -0.3 1.2 1
v -0.0999999 1 1
v -0.0999999 1.2 1
v -0.5 0.5 0.8
v -0.5 1.2 0.8
v -0.5 1.6 0.8
v -0.3 0.5 0.8
v -0.3 1 0.8
v -0.3 1.2 0.8
v -0.3 1.4 0.8
v -0.0999999 0.5 0.8
v -0.0999999 1 0.8
v -0.0999999 1.2 0.8
v -0.0999999 1.4 0.8
v 0.1 0.5 0.8
v 0.1 1.2 0.8
v 0.1 1.6 0.8
v -0.3 1.6 0.7
v -0.3 1.8 0.7
v -0.0999999 1.6 0.7
v -0.0999999 1.8 0.7
v -0.6 0 0.6
v -0.6 0.1 0.6
v -0.5 0 0.6
v -0.5 0.1 0.6
v -0.4 0 0.6
v -0.4 0.1 0.6
v -0.3 0 0.6
v -0.3 0.1 0.6
v -0.0999999 0 0.6
v -0.0999999 0.1 0.6
v 5.96046e-08 0 0.6
v 5.96046e-08 0.1 0.6
v 0.1 0 0.6
v 0.1 0.1 0.6
v 0.2 0 0.6
v 0.2 0.1 0.6
v -0.6 0.6 0.5
v -0.6 0.7 0.5
v -0.6 0.8 0.5
v -0.5 0.6 0.5
v -0.5 0.7 0.5
v -0.5 0.8 0.5
v 0.1 0.6 0.5
v 0.1 0.7 0.5
v 0.1 0.8 0.5
v 0.2 0.6 0.5
v 0.2 0.7 0.5
v 0.2 0.8 0.5
v -0.5 0 0.4
v -0.5 0.1 0.4
v -0.4 0 0.4
v -0.4 0.1 0.4
v 5.96046e-08 0 0.4
v 5.96046e-08 0.1 0.4
v 0.1 0 0.4
v 0.1 0.1 0.4
v -0.5 0.1 0.3
v -0.5 0.5 0.3
v -0.4 0.1 0.3
v -0.4 0.5 0.3
v 5.96046e-08 0.1 0.3
v 5.96046e-08 0.5 0.3
v 0.1 0.1 0.3
v 0.1 0.5 0.3
v -0.3 1.6 0.4
v -0.3 1.8 0.4
v -0.0999999 1.6 0.4
v -0.0999999 1.8 0.4
v -0.5 0.1 0.2
v -0.5 0.5 0.2
v -0.5 1 0.2
v -0.5 1.2 0.2
v -0.5 1.6 0.2
v -0.4 0.1 0.2
v -0.4 0.5 0.2
v 5.96046e-08 0.1 0.2
v 5.96046e-08 0.5 0.2
v 0.1 0.1 0.2
v 0.1 0.5 0.2
v 0.1 1 0.2
v 0.1 1.2 0.2
v 0.1 1.6 0.2
v -0.6 0 0.0999999
v -0.6 0.1 0.0999999
v -0.5 0.9 0.0999999
v -0.5 1 0.0999999
v -0.3 0 0.0999999
v -0.3 0.1 0.0999999
v -0.0999999 0 0.0999999
v -0.0999999 0.1 0.0999999
v 0.1 0.9 0.0999999
v 0.1 1 0.0999999
v 0.2 0 0.0999999
v 0.2 0.1 0.0999999
v -0.6 0.6 -1.19209e-07
v -0.6 0.7 -1.19209e-07
v -0.6 0.8 -1.19209e-07
v -0.5 0.6 -1.19209e-07
v -0.5 0.7 -1.19209e-07
v -0.5 0.8 -1.19209e-07
v 0.1 0.6 -1.19209e-07
v 0.1 0.7 -1.19209e-07
v 0.1 0.8 -1.19209e-07
v 0.2 0.6 -1.19209e-07
v 0.2 0.7 -1.19209e-07
v 0.2 0.8 -1.19209e-07
v -0.5 0.5 -0.2
v -0.5 0.9 -0.2
v -0.4 0.6 -0.2
v -0.4 0.8 -0.2
v 5.96046e-08 0.6 -0.2
v 5.96046e-08 0.8 -0.2
v 0.1 0.5 -0.2
v 0.1 0.9 -0.2
v -0.4 0.6 -0.3
v -0.4 0.8 -0.3
v 5.96046e-08 0.6 -0.3
v 5.96046e-08 0.8 -0.3
v -0.6 0 0.6
v -0.5 0 0.6
v -0.4 0 0.6
v -0.3 0 0.6
v -0.0999999 0 0.6
v 5.96046e-08 0 0.6
v 0.1 0 0.6
v 0.2 0 0.6
v -0.5 0 0.4
v -0.4 0 0.4
v 5.96046e-08 0 0.4
v 0.1 0 0.4
v -0.6 0 0.0999999
v -0.3 0 0.0999999
v -0.0999999 0 0.0999999
v 0.2 0 0.0999999
v -0.5 0.5 0.8
v -0.3 0.5 0.8
v -0.0999999 0.5 0.8
v 0.1 0.5 0.8
v -0.4 0.5 0.7
v -0.3 0.5 0.7
v -0.0999999 0.5 0.7
v 5.96046e-08 0.5 0.7
v -0.5 0.5 0.3
v -0.4 0.5 0.3
v 5.96046e-08 0.5 0.3
v 0.1 0.5 0.3
v -0.5 0.5 0.2
v -0.4 0.5 0.2
v 5.96046e-08 0.5 0.2
v 0.1 0.5 0.2
v -0.5 0.5 -0.2
v 0.1 0.5 -0.2
v -0.6 0.6 0.5
v -0.5 0.6 0.5
v 0.1 0.6 0.5
v 0.2 0.6 0.5
v -0.6 0.6 -1.19209e-07
v -0.5 0.6 -1.19209e-07
v 0.1 0.6 -1.19209e-07
v 0.2 0.6 -1.19209e-07
v -0.4 0.6 -0.2
v 5.96046e-08 0.6 -0.2
v -0.4 0.6 -0.3
v 5.96046e-08 0.6 -0.3
v -0.3 1 1
v -0.0999999 1 1
v -0.3 1 0.8
v -0.0999999 1 0.8
v -0.3 1.2 1.2
v -0.0999999 1.2 1.2
v -0.3 1.2 1
v -0.0999999 1.2 1
v -0.6 0.1 0.6
v -0.5 0.1 0.6
v -0.4 0.1 0.6
v -0.3 0.1 0.6
v -0.0999999 0.1 0.6
v 5.96046e-08 0.1 0.6
v 0.1 0.1 0.6
v 0.2 0.1 0.6
v -0.5 0.1 0.4
v -0.4 0.1 0.4
v 5.96046e-08 0.1 0.4
v 0.1 0.1 0.4
v -0.5 0.1 0.3
v -0.4 0.1 0.3
v 5.96046e-08 0.1 0.3
v 0.1 0.1 0.3
v -0.5 0.1 0.2
v -0.4 0.1 0.2
v 5.96046e-08 0.1 0.2
v 0.1 0.1 0.2
v -0.6 0.1 0.0999999
v -0.3 0.1 0.0999999
v -0.0999999 0.1 0.0999999
v 0.2 0.1 0.0999999
v -0.6 0.8 0.5
v -0.5 0.8 0.5
v 0.1 0.8 0.5
v 0.2 0.8 0.5
v -0.6 0.8 -1.19209e-07
v -0.5 0.8 -1.19209e-07
v 0.1 0.8 -1.19209e-07
v 0.2 0.8 -1.19209e-07
v -0.4 0.8 -0.2
v 5.96046e-08 0.8 -0.2
v -0.4 0.8 -0.3
v 5.96046e-08 0.8 -0.3
v -0.5 0.9 0.0999999
v 0.1 0.9 0.0999999
v -0.5 0.9 -0.2
v 0.1 0.9 -0.2
v -0.5 1 0.2
v 0.1 1 0.2
v -0.5 1 0.0999999
v 0.1 1 0.0999999
v -0.3 1.4 1.2
v -0.0999999 1.4 1.2
v -0.3 1.4 0.8
v -0.0999999 1.4 0.8
v -0.5 1.6 0.8
v 0.1 1.6 0.8
v -0.3 1.6 0.7
v -0.0999999 1.6 0.7
v -0.3 1.6 0.4
v -0.0999999 1.6 0.4
v -0.5 1.6 0.2
v 0.1 1.6 0.2
v -0.3 1.8 0.7
v -0.0999999 1.8 0.7
v -0.3 1.8 0.4
v -0.0999999 1.8 0.4

# faces
f 3/2/1 2/2/1 1/2/1
f 4/2/1 2/2/1 3/2/1
f 7/5/1 6/5/1 5/5/1
f 8/5/1 6/5/1 7/5/1
f 9/1/1 8/1/1 7/1/1
f 10/1/1 8/1/1 9/1/1
f 14/2/1 12/2/1 11/2/1
f 15/2/1 12/2/1 14/2/1
f 17/4/1 14/4/1 13/4/1
f 17/4/1 16/4/1 15/4/1
f 17/4/1 15/4/1 14/4/1
f 18/4/1 16/4/1 17/4/1
f 19/4/1 17/4/1 13/4/1
f 20/4/1 16/4/1 18/4/1
f 21/4/1 19/4/1 13/4/1
f 22/4/1 16/4/1 20/4/1
f 23/4/1 22/4/1 21/4/1
f 24/4/1 16/4/1 22/4/1
f 24/4/1 22/4/1 23/4/1
f 25/4/1 23/4/1 21/4/1
f 26/4/1 23/4/1 25/4/1
f 27/4/1 21/4/1 13/4/1
f 27/4/1 25/4/1 21/4/1
f 28/4/1 25/4/1 27/4/1
f 29/1/1 28/1/1 27/1/1
f 30/1/1 28/1/1 29/1/1
f 31/1/1 29/1/1 27/1/1
f 31/6/1 30/6/1 29/6/1
f 32/1/1 28/1/1 30/1/1
f 32/6/1 30/6/1 31/6/1
f 33/1/1 31/1/1 27/1/1
f 33/1/1 32/1/1 31/1/1
f 34/1/1 28/1/1 32/1/1
f 34/1/1 32/1/1 33/1/1
f 37/2/1 36/2/1 35/2/1
f 38/2/1 36/2/1 37/2/1
f 41/1/1 40/1/1 39/1/1
f 42/1/1 40/1/1 41/1/1
f 46/3/1 44/3/1 43/3/1
f 47/3/1 44/3/1 46/3/1
f 48/2/1 46/2/1 45/2/1
f 48/2/1 47/2/1 46/2/1
f 49/2/1 47/2/1 48/2/1
f 52/3/1 51/3/1 50/3/1
f 53/3/1 51/3/1 52/3/1
f 56/2/1 55/2/1 54/2/1
f 57/2/1 55/2/1 56/2/1
f 60/2/1 59/2/1 58/2/1
f 61/2/1 59/2/1 60/2/1
f 64/2/1 63/2/1 62/2/1
f 65/2/1 63/2/1 64/2/1
f 66/2/2 67/2/2 68/2/2
f 68/2/2 67/2/2 69/2/2
f 70/2/2 71/2/2 72/2/2
f 72/2/2 71/2/2 73/2/2
f 74/2/2 75/2/2 76/2/2
f 76/2/2 75/2/2 77/2/2
f 78/3/2 79/3/2 81/3/2
f 81/3/2 79/3/2 82/3/2
f 80/2/2 81/2/2 83/2/2
f 81/2/2 82/2/2 83/2/2
f 83/2/2 82/2/2 84/2/2
f 85/3/2 86/3/2 87/3/2
f 87/3/2 86/3/2 88/3/2
f 89/2/2 90/2/2 91/2/2
f 91/2/2 90/2/2 92/2/2
f 93/1/2 94/1/2 95/1/2
f 95/1/2 94/1/2 96/1/2
f 97/2/2 98/2/2 100/2/2
f 100/2/2 98/2/2 101/2/2
f 99/4/2 100/4/2 103/4/2
f 101/4/2 102/4/2 103/4/2
f 100/4/2 101/4/2 103/4/2
f 103/4/2 102/4/2 104/4/2
f 99/4/2 103/4/2 105/4/2
f 104/4/2 102/4/2 106/4/2
f 99/4/2 105/4/2 107/4/2
f 106/4/2 102/4/2 108/4/2
f 107/4/2 108/4/2 109/4/2
f 108/4/2 102/4/2 110/4/2
f 109/4/2 108/4/2 110/4/2
f 107/4/2 109/4/2 111/4/2
f 111/4/2 109/4/2 112/4/2
f 99/4/2 107/4/2 113/4/2
f 107/4/2 111/4/2 113/4/2
f 113/4/2 111/4/2 114/4/2
f 113/1/2 114/1/2 115/1/2
f 115/1/2 114/1/2 116/1/2
f 113/1/2 115/1/2 117/1/2
f 115/6/2 116/6/2 117/6/2
f 116/1/2 114/1/2 118/1/2
f 117/6/2 116/6/2 118/6/2
f 113/1/2 117/1/2 119/1/2
f 117/1/2 118/1/2 119/1/2
f 118/1/2 114/1/2 120/1/2
f 119/1/2 118/1/2 120/1/2
f 121/2/2 122/2/2 123/2/2
f 123/2/2 122/2/2 124/2/2
f 125/5/2 126/5/2 127/5/2
f 127/5/2 126/5/2 128/5/2
f 127/1/2 128/1/2 129/1/2
f 129/1/2 128/1/2 130/1/2
f 133/2/3 132/2/3 131/2/3
f 134/2/3 132/2/3 133/2/3
f 137/3/3 136/3/3 135/3/3
f 138/3/3 136/3/3 137/3/3
f 142/4/3 140/4/3 139/4/3
f 143/4/3 140/4/3 142/4/3
f 144/1/3 141/1/3 140/1/3
f 144/4/3 140/4/3 143/4/3
f 145/1/3 141/1/3 144/1/3
f 146/1/3 143/1/3 142/1/3
f 147/1/3 143/1/3 146/1/3
f 149/1/3 141/1/3 145/1/3
f 150/4/3 148/4/3 147/4/3
f 150/4/3 147/4/3 146/4/3
f 151/1/3 149/1/3 148/1/3
f 151/4/3 148/4/3 150/4/3
f 152/1/3 141/1/3 149/1/3
f 152/1/3 149/1/3 151/1/3
f 155/3/3 154/3/3 153/3/3
f 156/3/3 154/3/3 155/3/3
f 159/2/3 158/2/3 157/2/3
f 160/2/3 158/2/3 159/2/3
f 163/2/3 162/2/3 161/2/3
f 164/2/3 162/2/3 163/2/3
f 167/2/3 166/2/3 165/2/3
f 168/2/3 166/2/3 167/2/3
f 171/2/3 170/2/3 169/2/3
f 172/2/3 170/2/3 171/2/3
f 176/5/3 174/5/3 173/5/3
f 177/1/3 175/1/3 174/1/3
f 177/5/3 174/5/3 176/5/3
f 178/1/3 175/1/3 177/1/3
f 182/5/3 180/5/3 179/5/3
f 183/1/3 181/1/3 180/1/3
f 183/5/3 180/5/3 182/5/3
f 184/1/3 181/1/3 183/1/3
f 187/2/3 186/2/3 185/2/3
f 188/2/3 186/2/3 187/2/3
f 191/2/3 190/2/3 189/2/3
f 192/2/3 190/2/3 191/2/3
f 195/2/3 194/2/3 193/2/3
f 196/2/3 194/2/3 195/2/3
f 199/2/3 198/2/3 197/2/3
f 200/2/3 198/2/3 199/2/3
f 201/3/4 202/3/4 203/3/4
f 203/3/4 202/3/4 204/3/4
f 205/2/4 206/2/4 210/2/4
f 210/2/4 206/2/4 211/2/4
f 212/2/4 213/2/4 214/2/4
f 214/2/4 213/2/4 215/2/4
f 207/4/4 208/4/4 216/4/4
f 208/1/4 209/1/4 217/1/4
f 216/4/4 208/4/4 217/4/4
f 217/1/4 209/1/4 218/1/4
f 219/2/4 220/2/4 223/2/4
f 223/2/4 220/2/4 224/2/4
f 221/4/4 222/4/4 227/4/4
f 227/4/4 222/4/4 228/4/4
f 225/2/4 226/2/4 229/2/4
f 229/2/4 226/2/4 230/2/4
f 231/5/4 232/5/4 234/5/4
f 232/1/4 233/1/4 235/1/4
f 234/5/4 232/5/4 235/5/4
f 235/1/4 233/1/4 236/1/4
f 237/5/4 238/5/4 240/5/4
f 238/1/4 239/1/4 241/1/4
f 240/5/4 238/5/4 241/5/4
f 241/1/4 239/1/4 242/1/4
f 243/4/4 244/4/4 245/4/4
f 245/4/4 244/4/4 246/4/4
f 243/4/4 245/4/4 247/4/4
f 246/4/4 244/4/4 248/4/4
f 243/4/4 247/4/4 249/4/4
f 247/4/4 248/4/4 249/4/4
f 248/4/4 244/4/4 250/4/4
f 249/4/4 248/4/4 250/4/4
f 251/1/4 252/1/4 253/1/4
f 253/1/4 252/1/4 254/1/4
f 263/2/5 256/2/5 255/2/5
f 264/2/5 258/2/5 257/2/5
f 265/2/5 260/2/5 259/2/5
f 266/2/5 262/2/5 261/2/5
f 267/2/5 263/2/5 255/2/5
f 267/2/5 264/2/5 263/2/5
f 268/2/5 258/2/5 264/2/5
f 268/2/5 264/2/5 267/2/5
f 269/2/5 265/2/5 259/2/5
f 269/2/5 266/2/5 265/2/5
f 270/2/5 262/2/5 266/2/5
f 270/2/5 266/2/5 269/2/5
f 275/4/5 272/4/5 271/4/5
f 276/1/5 273/1/5 272/1/5
f 276/4/5 272/4/5 275/4/5
f 277/4/5 274/4/5 273/4/5
f 277/1/5 273/1/5 276/1/5
f 278/4/5 274/4/5 277/4/5
f 279/4/5 275/4/5 271/4/5
f 280/1/5 276/1/5 275/1/5
f 280/4/5 275/4/5 279/4/5
f 280/1/5 277/1/5 276/1/5
f 280/1/5 278/1/5 277/1/5
f 281/4/5 274/4/5 278/4/5
f 281/1/5 278/1/5 280/1/5
f 282/4/5 274/4/5 281/4/5
f 284/4/5 281/4/5 280/4/5
f 285/4/5 281/4/5 284/4/5
f 287/4/5 284/4/5 283/4/5
f 287/4/5 286/4/5 285/4/5
f 287/4/5 285/4/5 284/4/5
f 288/4/5 286/4/5 287/4/5
f 293/5/5 290/5/5 289/5/5
f 294/5/5 290/5/5 293/5/5
f 295/5/5 292/5/5 291/5/5
f 296/5/5 292/5/5 295/5/5
f 299/1/5 298/1/5 297/1/5
f 300/1/5 298/1/5 299/1/5
f 303/3/5 302/3/5 301/3/5
f 304/3/5 302/3/5 303/3/5
f 307/2/5 306/2/5 305/2/5
f 308/2/5 306/2/5 307/2/5
f 309/2/6 310/2/6 317/2/6
f 311/2/6 312/2/6 318/2/6
f 313/2/6 314/2/6 319/2/6
f 315/2/6 316/2/6 320/2/6
f 309/2/6 317/2/6 321/2/6
f 317/2/6 318/2/6 321/2/6
f 318/2/6 312/2/6 322/2/6
f 321/2/6 318/2/6 322/2/6
f 313/2/6 319/2/6 323/2/6
f 319/2/6 320/2/6 323/2/6
f 320/2/6 316/2/6 324/2/6
f 323/2/6 320/2/6 324/2/6
f 309/2/6 321/2/6 325/2/6
f 322/2/6 312/2/6 326/2/6
f 313/2/6 323/2/6 327/2/6
f 324/2/6 316/2/6 328/2/6
f 309/2/6 325/2/6 329/2/6
f 325/2/6 326/2/6 329/2/6
f 326/2/6 312/2/6 330/2/6
f 329/2/6 326/2/6 330/2/6
f 327/2/6 328/2/6 331/2/6
f 313/2/6 327/2/6 331/2/6
f 328/2/6 316/2/6 332/2/6
f 331/2/6 328/2/6 332/2/6
f 333/1/6 334/1/6 337/1/6
f 337/1/6 334/1/6 338/1/6
f 335/1/6 336/1/6 339/1/6
f 339/1/6 336/1/6 340/1/6
f 341/1/6 342/1/6 343/1/6
f 343/1/6 342/1/6 344/1/6
f 345/4/6 346/4/6 347/4/6
f 347/4/6 346/4/6 348/4/6
f 349/4/6 350/4/6 351/4/6
f 351/4/6 350/4/6 352/4/6
f 353/2/6 354/2/6 355/2/6
f 355/2/6 354/2/6 356/2/6
f 357/1/6 358/1/6 359/1/6
f 359/1/6 358/1/6 360/1/6
f 357/1/6 359/1/6 361/1/6
f 360/1/6 358/1/6 362/1/6
f 357/1/6 361/1/6 363/1/6
f 361/1/6 362/1/6 363/1/6
f 362/1/6 358/1/6 364/1/6
f 363/1/6 362/1/6 364/1/6
f 365/3/6 366/3/6 367/3/6
f 367/3/6 366/3/6 368/3/6
