# MagicaVoxel @ Ephtracy

# group
o 

# material
mtllib gaD18.mtl
usemtl palette

# normals
vn -1 0 0
vn 1 0 0
vn 0 0 1
vn 0 0 -1
vn 0 -1 0
vn 0 1 0

# texcoords
vt 0.0214844 0.5
vt 0.0292969 0.5
vt 0.0917969 0.5
vt 0.841797 0.5
vt 0.919922 0.5
vt 0.923828 0.5
vt 0.931641 0.5
vt 0.958984 0.5
vt 0.994141 0.5

# verts
v -0.6 0 0.6
v -0.6 0 0.0999999
v -0.6 0.1 0.6
v -0.6 0.1 0.0999999
v -0.6 0.6 0.5
v -0.6 0.6 -1.19209e-07
v -0.6 0.7 0.5
v -0.6 0.7 -1.19209e-07
v -0.6 0.8 0.5
v -0.6 0.8 -1.19209e-07
v -0.5 0.1 0.3
v -0.5 0.1 0.2
v -0.5 0.5 0.8
v -0.5 0.5 0.3
v -0.5 0.5 0.2
v -0.5 0.5 -0.2
v -0.5 0.6 0.5
v -0.5 0.6 -1.19209e-07
v -0.5 0.7 0.5
v -0.5 0.7 -1.19209e-07
v -0.5 0.8 0.5
v -0.5 0.8 -1.19209e-07
v -0.5 0.9 0.0999999
v -0.5 0.9 -0.2
v -0.5 1 0.2
v -0.5 1 0.0999999
v -0.5 1.2 0.8
v -0.5 1.2 0.2
v -0.5 1.3 0.6
v -0.5 1.3 0.5
v -0.5 1.4 0.6
v -0.5 1.4 0.5
v -0.5 1.6 0.8
v -0.5 1.6 0.2
v -0.4 0 0.6
v -0.4 0 0.4
v -0.4 0.1 0.6
v -0.4 0.1 0.4
v -0.4 0.6 -0.2
v -0.4 0.6 -0.3
v -0.4 0.8 -0.2
v -0.4 0.8 -0.3
v -0.3 1 1
v -0.3 1 0.8
v -0.3 1.2 1.2
v -0.3 1.2 1
v -0.3 1.2 0.8
v -0.3 1.4 1.2
v -0.3 1.4 0.8
v -0.3 1.6 0.7
v -0.3 1.6 0.4
v -0.3 1.8 0.7
v -0.3 1.8 0.4
v -0.0999999 0 0.6
v -0.0999999 0 0.0999999
v -0.0999999 0.1 0.6
v -0.0999999 0.1 0.0999999
v 5.96046e-08 0.1 0.3
v 5.96046e-08 0.1 0.2
v 5.96046e-08 0.5 0.3
v 5.96046e-08 0.5 0.2
v 0.1 0 0.6
v 0.1 0 0.4
v 0.1 0.1 0.6
v 0.1 0.1 0.4
v -0.5 0 0.6
v -0.5 0 0.4
v -0.5 0.1 0.6
v -0.5 0.1 0.4
v -0.4 0.1 0.3
v -0.4 0.1 0.2
v -0.4 0.5 0.3
v -0.4 0.5 0.2
v -0.3 0 0.6
v -0.3 0 0.0999999
v -0.3 0.1 0.6
v -0.3 0.1 0.0999999
v -0.0999999 1 1
v -0.0999999 1 0.8
v -0.0999999 1.2 1.2
v -0.0999999 1.2 1
v -0.0999999 1.2 0.8
v -0.0999999 1.4 1.2
v -0.0999999 1.4 0.8
v -0.0999999 1.6 0.7
v -0.0999999 1.6 0.4
v -0.0999999 1.8 0.7
v -0.0999999 1.8 0.4
v 5.96046e-08 0 0.6
v 5.96046e-08 0 0.4
v 5.96046e-08 0.1 0.6
v 5.96046e-08 0.1 0.4
v 5.96046e-08 0.6 -0.2
v 5.96046e-08 0.6 -0.3
v 5.96046e-08 0.8 -0.2
v 5.96046e-08 0.8 -0.3
v 0.1 0.1 0.3
v 0.1 0.1 0.2
v 0.1 0.5 0.8
v 0.1 0.5 0.3
v 0.1 0.5 0.2
v 0.1 0.5 -0.2
v 0.1 0.6 0.5
v 0.1 0.6 -1.19209e-07
v 0.1 0.7 0.5
v 0.1 0.7 -1.19209e-07
v 0.1 0.8 0.5
v 0.1 0.8 -1.19209e-07
v 0.1 0.9 0.0999999
v 0.1 0.9 -0.2
v 0.1 1 0.2
v 0.1 1 0.0999999
v 0.1 1.2 0.8
v 0.1 1.2 0.2
v 0.1 1.3 0.6
v 0.1 1.3 0.5
v 0.1 1.4 0.6
v 0.1 1.4 0.5
v 0.1 1.6 0.8
v 0.1 1.6 0.2
v 0.2 0 0.6
v 0.2 0 0.0999999
v 0.2 0.1 0.6
v 0.2 0.1 0.0999999
v 0.2 0.6 0.5
v 0.2 0.6 -1.19209e-07
v 0.2 0.7 0.5
v 0.2 0.7 -1.19209e-07
v 0.2 0.8 0.5
v 0.2 0.8 -1.19209e-07
v -0.3 1.2 1.2
v -0.3 1.4 1.2
v -0.0999999 1.2 1.2
v -0.0999999 1.4 1.2
v -0.3 1 1
v -0.3 1.2 1
v -0.0999999 1 1
v -0.0999999 1.2 1
v -0.5 0.5 0.8
v -0.5 1.2 0.8
v -0.5 1.6 0.8
v -0.3 1 0.8
v -0.3 1.2 0.8
v -0.3 1.4 0.8
v -0.0999999 1 0.8
v -0.0999999 1.2 0.8
v -0.0999999 1.4 0.8
v 0.1 0.5 0.8
v 0.1 1.2 0.8
v 0.1 1.6 0.8
v -0.3 1.6 0.7
v -0.3 1.8 0.7
v -0.0999999 1.6 0.7
v -0.0999999 1.8 0.7
v -0.6 0 0.6
v -0.6 0.1 0.6
v -0.5 0 0.6
v -0.5 0.1 0.6
v -0.4 0 0.6
v -0.4 0.1 0.6
v -0.3 0 0.6
v -0.3 0.1 0.6
v -0.0999999 0 0.6
v -0.0999999 0.1 0.6
v 5.96046e-08 0 0.6
v 5.96046e-08 0.1 0.6
v 0.1 0 0.6
v 0.1 0.1 0.6
v 0.2 0 0.6
v 0.2 0.1 0.6
v -0.6 0.6 0.5
v -0.6 0.7 0.5
v -0.6 0.8 0.5
v -0.5 0.6 0.5
v -0.5 0.7 0.5
v -0.5 0.8 0.5
v 0.1 0.6 0.5
v 0.1 0.7 0.5
v 0.1 0.8 0.5
v 0.2 0.6 0.5
v 0.2 0.7 0.5
v 0.2 0.8 0.5
v -0.5 0 0.4
v -0.5 0.1 0.4
v -0.4 0 0.4
v -0.4 0.1 0.4
v 5.96046e-08 0 0.4
v 5.96046e-08 0.1 0.4
v 0.1 0 0.4
v 0.1 0.1 0.4
v -0.5 0.1 0.3
v -0.5 0.5 0.3
v -0.4 0.1 0.3
v -0.4 0.5 0.3
v 5.96046e-08 0.1 0.3
v 5.96046e-08 0.5 0.3
v 0.1 0.1 0.3
v 0.1 0.5 0.3
v -0.3 1.6 0.4
v -0.3 1.8 0.4
v -0.0999999 1.6 0.4
v -0.0999999 1.8 0.4
v -0.5 0.1 0.2
v -0.5 0.5 0.2
v -0.5 1 0.2
v -0.5 1.2 0.2
v -0.5 1.6 0.2
v -0.4 0.1 0.2
v -0.4 0.5 0.2
v 5.96046e-08 0.1 0.2
v 5.96046e-08 0.5 0.2
v 0.1 0.1 0.2
v 0.1 0.5 0.2
v 0.1 1 0.2
v 0.1 1.2 0.2
v 0.1 1.6 0.2
v -0.6 0 0.0999999
v -0.6 0.1 0.0999999
v -0.5 0.9 0.0999999
v -0.5 1 0.0999999
v -0.3 0 0.0999999
v -0.3 0.1 0.0999999
v -0.0999999 0 0.0999999
v -0.0999999 0.1 0.0999999
v 0.1 0.9 0.0999999
v 0.1 1 0.0999999
v 0.2 0 0.0999999
v 0.2 0.1 0.0999999
v -0.6 0.6 -1.19209e-07
v -0.6 0.7 -1.19209e-07
v -0.6 0.8 -1.19209e-07
v -0.5 0.6 -1.19209e-07
v -0.5 0.7 -1.19209e-07
v -0.5 0.8 -1.19209e-07
v 0.1 0.6 -1.19209e-07
v 0.1 0.7 -1.19209e-07
v 0.1 0.8 -1.19209e-07
v 0.2 0.6 -1.19209e-07
v 0.2 0.7 -1.19209e-07
v 0.2 0.8 -1.19209e-07
v -0.5 0.5 -0.2
v -0.5 0.9 -0.2
v -0.4 0.6 -0.2
v -0.4 0.8 -0.2
v 5.96046e-08 0.6 -0.2
v 5.96046e-08 0.8 -0.2
v 0.1 0.5 -0.2
v 0.1 0.9 -0.2
v -0.4 0.6 -0.3
v -0.4 0.8 -0.3
v 5.96046e-08 0.6 -0.3
v 5.96046e-08 0.8 -0.3
v -0.6 0 0.6
v -0.5 0 0.6
v -0.4 0 0.6
v -0.3 0 0.6
v -0.0999999 0 0.6
v 5.96046e-08 0 0.6
v 0.1 0 0.6
v 0.2 0 0.6
v -0.5 0 0.4
v -0.4 0 0.4
v 5.96046e-08 0 0.4
v 0.1 0 0.4
v -0.6 0 0.0999999
v -0.3 0 0.0999999
v -0.0999999 0 0.0999999
v 0.2 0 0.0999999
v -0.5 0.5 0.8
v 0.1 0.5 0.8
v -0.5 0.5 0.3
v -0.4 0.5 0.3
v 5.96046e-08 0.5 0.3
v 0.1 0.5 0.3
v -0.5 0.5 0.2
v -0.4 0.5 0.2
v 5.96046e-08 0.5 0.2
v 0.1 0.5 0.2
v -0.5 0.5 -0.2
v 0.1 0.5 -0.2
v -0.6 0.6 0.5
v -0.5 0.6 0.5
v 0.1 0.6 0.5
v 0.2 0.6 0.5
v -0.6 0.6 -1.19209e-07
v -0.5 0.6 -1.19209e-07
v 0.1 0.6 -1.19209e-07
v 0.2 0.6 -1.19209e-07
v -0.4 0.6 -0.2
v 5.96046e-08 0.6 -0.2
v -0.4 0.6 -0.3
v 5.96046e-08 0.6 -0.3
v -0.3 1 1
v -0.0999999 1 1
v -0.3 1 0.8
v -0.0999999 1 0.8
v -0.3 1.2 1.2
v -0.0999999 1.2 1.2
v -0.3 1.2 1
v -0.0999999 1.2 1
v -0.6 0.1 0.6
v -0.5 0.1 0.6
v -0.4 0.1 0.6
v -0.3 0.1 0.6
v -0.0999999 0.1 0.6
v 5.96046e-08 0.1 0.6
v 0.1 0.1 0.6
v 0.2 0.1 0.6
v -0.5 0.1 0.4
v -0.4 0.1 0.4
v 5.96046e-08 0.1 0.4
v 0.1 0.1 0.4
v -0.5 0.1 0.3
v -0.4 0.1 0.3
v 5.96046e-08 0.1 0.3
v 0.1 0.1 0.3
v -0.5 0.1 0.2
v -0.4 0.1 0.2
v 5.96046e-08 0.1 0.2
v 0.1 0.1 0.2
v -0.6 0.1 0.0999999
v -0.3 0.1 0.0999999
v -0.0999999 0.1 0.0999999
v 0.2 0.1 0.0999999
v -0.6 0.8 0.5
v -0.5 0.8 0.5
v 0.1 0.8 0.5
v 0.2 0.8 0.5
v -0.6 0.8 -1.19209e-07
v -0.5 0.8 -1.19209e-07
v 0.1 0.8 -1.19209e-07
v 0.2 0.8 -1.19209e-07
v -0.4 0.8 -0.2
v 5.96046e-08 0.8 -0.2
v -0.4 0.8 -0.3
v 5.96046e-08 0.8 -0.3
v -0.5 0.9 0.0999999
v 0.1 0.9 0.0999999
v -0.5 0.9 -0.2
v 0.1 0.9 -0.2
v -0.5 1 0.2
v 0.1 1 0.2
v -0.5 1 0.0999999
v 0.1 1 0.0999999
v -0.3 1.4 1.2
v -0.0999999 1.4 1.2
v -0.3 1.4 0.8
v -0.0999999 1.4 0.8
v -0.5 1.6 0.8
v 0.1 1.6 0.8
v -0.3 1.6 0.7
v -0.0999999 1.6 0.7
v -0.3 1.6 0.4
v -0.0999999 1.6 0.4
v -0.5 1.6 0.2
v 0.1 1.6 0.2
v -0.3 1.8 0.7
v -0.0999999 1.8 0.7
v -0.3 1.8 0.4
v -0.0999999 1.8 0.4

# faces
f 3/3/1 2/3/1 1/3/1
f 4/3/1 2/3/1 3/3/1
f 7/7/1 6/7/1 5/7/1
f 8/7/1 6/7/1 7/7/1
f 9/2/1 8/2/1 7/2/1
f 10/2/1 8/2/1 9/2/1
f 14/3/1 12/3/1 11/3/1
f 15/3/1 12/3/1 14/3/1
f 17/5/1 14/5/1 13/5/1
f 17/5/1 16/5/1 15/5/1
f 17/5/1 15/5/1 14/5/1
f 18/5/1 16/5/1 17/5/1
f 19/5/1 17/5/1 13/5/1
f 20/5/1 16/5/1 18/5/1
f 21/5/1 19/5/1 13/5/1
f 22/5/1 16/5/1 20/5/1
f 23/5/1 22/5/1 21/5/1
f 24/5/1 16/5/1 22/5/1
f 24/5/1 22/5/1 23/5/1
f 25/5/1 23/5/1 21/5/1
f 26/5/1 23/5/1 25/5/1
f 27/5/1 21/5/1 13/5/1
f 27/5/1 25/5/1 21/5/1
f 28/5/1 25/5/1 27/5/1
f 29/8/1 28/8/1 27/8/1
f 30/8/1 28/8/1 29/8/1
f 31/8/1 29/8/1 27/8/1
f 31/9/1 30/9/1 29/9/1
f 32/8/1 28/8/1 30/8/1
f 32/9/1 30/9/1 31/9/1
f 33/8/1 31/8/1 27/8/1
f 33/8/1 32/8/1 31/8/1
f 34/8/1 28/8/1 32/8/1
f 34/8/1 32/8/1 33/8/1
f 37/3/1 36/3/1 35/3/1
f 38/3/1 36/3/1 37/3/1
f 41/2/1 40/2/1 39/2/1
f 42/2/1 40/2/1 41/2/1
f 46/4/1 44/4/1 43/4/1
f 47/4/1 44/4/1 46/4/1
f 48/3/1 46/3/1 45/3/1
f 48/3/1 47/3/1 46/3/1
f 49/3/1 47/3/1 48/3/1
f 52/4/1 51/4/1 50/4/1
f 53/4/1 51/4/1 52/4/1
f 56/3/1 55/3/1 54/3/1
f 57/3/1 55/3/1 56/3/1
f 60/3/1 59/3/1 58/3/1
f 61/3/1 59/3/1 60/3/1
f 64/3/1 63/3/1 62/3/1
f 65/3/1 63/3/1 64/3/1
f 66/3/2 67/3/2 68/3/2
f 68/3/2 67/3/2 69/3/2
f 70/3/2 71/3/2 72/3/2
f 72/3/2 71/3/2 73/3/2
f 74/3/2 75/3/2 76/3/2
f 76/3/2 75/3/2 77/3/2
f 78/4/2 79/4/2 81/4/2
f 81/4/2 79/4/2 82/4/2
f 80/3/2 81/3/2 83/3/2
f 81/3/2 82/3/2 83/3/2
f 83/3/2 82/3/2 84/3/2
f 85/4/2 86/4/2 87/4/2
f 87/4/2 86/4/2 88/4/2
f 89/3/2 90/3/2 91/3/2
f 91/3/2 90/3/2 92/3/2
f 93/2/2 94/2/2 95/2/2
f 95/2/2 94/2/2 96/2/2
f 97/3/2 98/3/2 100/3/2
f 100/3/2 98/3/2 101/3/2
f 99/5/2 100/5/2 103/5/2
f 101/5/2 102/5/2 103/5/2
f 100/5/2 101/5/2 103/5/2
f 103/5/2 102/5/2 104/5/2
f 99/5/2 103/5/2 105/5/2
f 104/5/2 102/5/2 106/5/2
f 99/5/2 105/5/2 107/5/2
f 106/5/2 102/5/2 108/5/2
f 107/5/2 108/5/2 109/5/2
f 108/5/2 102/5/2 110/5/2
f 109/5/2 108/5/2 110/5/2
f 107/5/2 109/5/2 111/5/2
f 111/5/2 109/5/2 112/5/2
f 99/5/2 107/5/2 113/5/2
f 107/5/2 111/5/2 113/5/2
f 113/5/2 111/5/2 114/5/2
f 113/8/2 114/8/2 115/8/2
f 115/8/2 114/8/2 116/8/2
f 113/8/2 115/8/2 117/8/2
f 115/9/2 116/9/2 117/9/2
f 116/8/2 114/8/2 118/8/2
f 117/9/2 116/9/2 118/9/2
f 113/8/2 117/8/2 119/8/2
f 117/8/2 118/8/2 119/8/2
f 118/8/2 114/8/2 120/8/2
f 119/8/2 118/8/2 120/8/2
f 121/3/2 122/3/2 123/3/2
f 123/3/2 122/3/2 124/3/2
f 125/7/2 126/7/2 127/7/2
f 127/7/2 126/7/2 128/7/2
f 127/8/2 128/8/2 129/8/2
f 129/8/2 128/8/2 130/8/2
f 133/3/3 132/3/3 131/3/3
f 134/3/3 132/3/3 133/3/3
f 137/4/3 136/4/3 135/4/3
f 138/4/3 136/4/3 137/4/3
f 142/5/3 140/5/3 139/5/3
f 143/8/3 141/8/3 140/8/3
f 143/5/3 140/5/3 142/5/3
f 144/8/3 141/8/3 143/8/3
f 145/5/3 142/5/3 139/5/3
f 147/8/3 141/8/3 144/8/3
f 148/5/3 146/5/3 145/5/3
f 148/5/3 145/5/3 139/5/3
f 149/8/3 147/8/3 146/8/3
f 149/5/3 146/5/3 148/5/3
f 150/8/3 141/8/3 147/8/3
f 150/8/3 147/8/3 149/8/3
f 153/4/3 152/4/3 151/4/3
f 154/4/3 152/4/3 153/4/3
f 157/3/3 156/3/3 155/3/3
f 158/3/3 156/3/3 157/3/3
f 161/3/3 160/3/3 159/3/3
f 162/3/3 160/3/3 161/3/3
f 165/3/3 164/3/3 163/3/3
f 166/3/3 164/3/3 165/3/3
f 169/3/3 168/3/3 167/3/3
f 170/3/3 168/3/3 169/3/3
f 174/7/3 172/7/3 171/7/3
f 175/2/3 173/2/3 172/2/3
f 175/7/3 172/7/3 174/7/3
f 176/2/3 173/2/3 175/2/3
f 180/7/3 178/7/3 177/7/3
f 181/8/3 179/8/3 178/8/3
f 181/7/3 178/7/3 180/7/3
f 182/8/3 179/8/3 181/8/3
f 185/3/3 184/3/3 183/3/3
f 186/3/3 184/3/3 185/3/3
f 189/3/3 188/3/3 187/3/3
f 190/3/3 188/3/3 189/3/3
f 193/3/3 192/3/3 191/3/3
f 194/3/3 192/3/3 193/3/3
f 197/3/3 196/3/3 195/3/3
f 198/3/3 196/3/3 197/3/3
f 199/4/4 200/4/4 201/4/4
f 201/4/4 200/4/4 202/4/4
f 203/3/4 204/3/4 208/3/4
f 208/3/4 204/3/4 209/3/4
f 210/3/4 211/3/4 212/3/4
f 212/3/4 211/3/4 213/3/4
f 205/5/4 206/5/4 214/5/4
f 206/8/4 207/8/4 215/8/4
f 214/5/4 206/5/4 215/5/4
f 215/8/4 207/8/4 216/8/4
f 217/3/4 218/3/4 221/3/4
f 221/3/4 218/3/4 222/3/4
f 219/5/4 220/5/4 225/5/4
f 225/5/4 220/5/4 226/5/4
f 223/3/4 224/3/4 227/3/4
f 227/3/4 224/3/4 228/3/4
f 229/7/4 230/7/4 232/7/4
f 230/2/4 231/2/4 233/2/4
f 232/7/4 230/7/4 233/7/4
f 233/2/4 231/2/4 234/2/4
f 235/7/4 236/7/4 238/7/4
f 236/8/4 237/8/4 239/8/4
f 238/7/4 236/7/4 239/7/4
f 239/8/4 237/8/4 240/8/4
f 241/5/4 242/5/4 243/5/4
f 243/5/4 242/5/4 244/5/4
f 241/5/4 243/5/4 245/5/4
f 244/5/4 242/5/4 246/5/4
f 241/5/4 245/5/4 247/5/4
f 245/5/4 246/5/4 247/5/4
f 246/5/4 242/5/4 248/5/4
f 247/5/4 246/5/4 248/5/4
f 249/2/4 250/2/4 251/2/4
f 251/2/4 250/2/4 252/2/4
f 261/3/5 254/3/5 253/3/5
f 262/3/5 256/3/5 255/3/5
f 263/3/5 258/3/5 257/3/5
f 264/3/5 260/3/5 259/3/5
f 265/3/5 261/3/5 253/3/5
f 265/3/5 262/3/5 261/3/5
f 266/3/5 256/3/5 262/3/5
f 266/3/5 262/3/5 265/3/5
f 267/3/5 263/3/5 257/3/5
f 267/3/5 264/3/5 263/3/5
f 268/3/5 260/3/5 264/3/5
f 268/3/5 264/3/5 267/3/5
f 271/5/5 270/5/5 269/5/5
f 272/5/5 270/5/5 271/5/5
f 273/5/5 270/5/5 272/5/5
f 274/5/5 270/5/5 273/5/5
f 276/5/5 273/5/5 272/5/5
f 277/5/5 273/5/5 276/5/5
f 279/5/5 276/5/5 275/5/5
f 279/5/5 278/5/5 277/5/5
f 279/5/5 277/5/5 276/5/5
f 280/5/5 278/5/5 279/5/5
f 285/7/5 282/7/5 281/7/5
f 286/7/5 282/7/5 285/7/5
f 287/7/5 284/7/5 283/7/5
f 288/7/5 284/7/5 287/7/5
f 291/2/5 290/2/5 289/2/5
f 292/2/5 290/2/5 291/2/5
f 295/4/5 294/4/5 293/4/5
f 296/4/5 294/4/5 295/4/5
f 299/3/5 298/3/5 297/3/5
f 300/3/5 298/3/5 299/3/5
f 301/3/6 302/3/6 309/3/6
f 303/3/6 304/3/6 310/3/6
f 305/3/6 306/3/6 311/3/6
f 307/3/6 308/3/6 312/3/6
f 301/3/6 309/3/6 313/3/6
f 309/3/6 310/3/6 313/3/6
f 310/3/6 304/3/6 314/3/6
f 313/3/6 310/3/6 314/3/6
f 305/3/6 311/3/6 315/3/6
f 311/3/6 312/3/6 315/3/6
f 312/3/6 308/3/6 316/3/6
f 315/3/6 312/3/6 316/3/6
f 301/3/6 313/3/6 317/3/6
f 314/3/6 304/3/6 318/3/6
f 305/3/6 315/3/6 319/3/6
f 316/3/6 308/3/6 320/3/6
f 301/3/6 317/3/6 321/3/6
f 317/3/6 318/3/6 321/3/6
f 318/3/6 304/3/6 322/3/6
f 321/3/6 318/3/6 322/3/6
f 319/3/6 320/3/6 323/3/6
f 305/3/6 319/3/6 323/3/6
f 320/3/6 308/3/6 324/3/6
f 323/3/6 320/3/6 324/3/6
f 325/2/6 326/2/6 329/2/6
f 329/2/6 326/2/6 330/2/6
f 327/8/6 328/8/6 331/8/6
f 331/8/6 328/8/6 332/8/6
f 333/2/6 334/2/6 335/2/6
f 335/2/6 334/2/6 336/2/6
f 337/5/6 338/5/6 339/5/6
f 339/5/6 338/5/6 340/5/6
f 341/5/6 342/5/6 343/5/6
f 343/5/6 342/5/6 344/5/6
f 345/3/6 346/3/6 347/3/6
f 347/3/6 346/3/6 348/3/6
f 349/8/6 350/8/6 351/8/6
f 351/8/6 350/8/6 352/8/6
f 349/8/6 351/8/6 353/8/6
f 352/8/6 350/8/6 354/8/6
f 349/8/6 353/8/6 355/8/6
f 353/8/6 354/8/6 355/8/6
f 354/8/6 350/8/6 356/8/6
f 355/8/6 354/8/6 356/8/6
f 357/4/6 358/4/6 359/4/6
f 359/4/6 358/4/6 360/4/6
