# MagicaVoxel @ Ephtracy

# group
o 

# material
mtllib hulk.mtl
usemtl palette

# normals
vn -1 0 0
vn 1 0 0
vn 0 0 1
vn 0 0 -1
vn 0 -1 0
vn 0 1 0

# texcoords
vt 0.0292969 0.5
vt 0.0917969 0.5
vt 0.537109 0.5
vt 0.740234 0.5
vt 0.744141 0.5
vt 0.794922 0.5
vt 0.841797 0.5
vt 0.904297 0.5

# verts
v -0.6 0 0.6
v -0.6 0 0.0999999
v -0.6 0.1 0.6
v -0.6 0.1 0.0999999
v -0.6 0.6 0.5
v -0.6 0.6 -1.19209e-07
v -0.6 0.8 0.5
v -0.6 0.8 -1.19209e-07
v -0.5 0.1 0.3
v -0.5 0.1 0.2
v -0.5 0.3 0.3
v -0.5 0.3 0.2
v -0.5 0.4 0.3
v -0.5 0.4 0.2
v -0.5 0.5 0.8
v -0.5 0.5 0.7
v -0.5 0.5 0.6
v -0.5 0.5 0.4
v -0.5 0.5 0.3
v -0.5 0.5 0.2
v -0.5 0.5 -1.19209e-07
v -0.5 0.5 -0.1
v -0.5 0.5 -0.2
v -0.5 0.6 0.7
v -0.5 0.6 0.6
v -0.5 0.6 0.5
v -0.5 0.6 0.4
v -0.5 0.6 0.3
v -0.5 0.6 -1.19209e-07
v -0.5 0.6 -0.1
v -0.5 0.7 0.8
v -0.5 0.7 0.5
v -0.5 0.7 -1.19209e-07
v -0.5 0.7 -0.2
v -0.5 0.8 0.5
v -0.5 0.8 -1.19209e-07
v -0.5 0.9 0.0999999
v -0.5 0.9 -0.2
v -0.5 1 0.2
v -0.5 1 0.0999999
v -0.5 1.3 0.6
v -0.5 1.3 0.5
v -0.5 1.4 0.6
v -0.5 1.4 0.5
v -0.5 1.6 0.8
v -0.5 1.6 0.2
v -0.4 0 0.6
v -0.4 0 0.4
v -0.4 0.1 0.6
v -0.4 0.1 0.4
v -0.4 0.6 -0.2
v -0.4 0.6 -0.3
v -0.4 0.7 -0.2
v -0.4 0.8 -0.2
v -0.4 0.8 -0.3
v -0.3 1 1
v -0.3 1 0.8
v -0.3 1.2 1.2
v -0.3 1.2 1
v -0.3 1.2 0.8
v -0.3 1.4 1.2
v -0.3 1.4 0.8
v -0.3 1.6 0.7
v -0.3 1.6 0.4
v -0.3 1.8 0.7
v -0.3 1.8 0.4
v -0.0999999 0 0.6
v -0.0999999 0 0.0999999
v -0.0999999 0.1 0.6
v -0.0999999 0.1 0.0999999
v 5.96046e-08 0.1 0.3
v 5.96046e-08 0.1 0.2
v 5.96046e-08 0.3 0.3
v 5.96046e-08 0.3 0.2
v 5.96046e-08 0.5 0.3
v 5.96046e-08 0.5 0.2
v 0.1 0 0.6
v 0.1 0 0.4
v 0.1 0.1 0.6
v 0.1 0.1 0.4
v -0.5 0 0.6
v -0.5 0 0.4
v -0.5 0.1 0.6
v -0.5 0.1 0.4
v -0.4 0.1 0.3
v -0.4 0.1 0.2
v -0.4 0.3 0.3
v -0.4 0.3 0.2
v -0.4 0.4 0.3
v -0.4 0.4 0.2
v -0.4 0.5 0.3
v -0.4 0.5 0.2
v -0.3 0 0.6
v -0.3 0 0.0999999
v -0.3 0.1 0.6
v -0.3 0.1 0.0999999
v -0.0999999 1 1
v -0.0999999 1 0.8
v -0.0999999 1.2 1.2
v -0.0999999 1.2 1
v -0.0999999 1.2 0.8
v -0.0999999 1.4 1.2
v -0.0999999 1.4 0.8
v -0.0999999 1.6 0.7
v -0.0999999 1.6 0.4
v -0.0999999 1.8 0.7
v -0.0999999 1.8 0.4
v 5.96046e-08 0 0.6
v 5.96046e-08 0 0.4
v 5.96046e-08 0.1 0.6
v 5.96046e-08 0.1 0.4
v 5.96046e-08 0.6 -0.2
v 5.96046e-08 0.6 -0.3
v 5.96046e-08 0.7 -0.2
v 5.96046e-08 0.8 -0.2
v 5.96046e-08 0.8 -0.3
v 0.1 0.1 0.3
v 0.1 0.1 0.2
v 0.1 0.3 0.3
v 0.1 0.3 0.2
v 0.1 0.5 0.8
v 0.1 0.5 0.3
v 0.1 0.5 0.2
v 0.1 0.5 -0.1
v 0.1 0.5 -0.2
v 0.1 0.6 0.5
v 0.1 0.6 0.3
v 0.1 0.6 0.2
v 0.1 0.6 -1.19209e-07
v 0.1 0.6 -0.1
v 0.1 0.6 -0.2
v 0.1 0.7 0.8
v 0.1 0.7 0.5
v 0.1 0.7 -1.19209e-07
v 0.1 0.7 -0.2
v 0.1 0.8 0.5
v 0.1 0.8 -1.19209e-07
v 0.1 0.9 0.0999999
v 0.1 0.9 -0.2
v 0.1 1 0.2
v 0.1 1 0.0999999
v 0.1 1.3 0.6
v 0.1 1.3 0.5
v 0.1 1.4 0.6
v 0.1 1.4 0.5
v 0.1 1.6 0.8
v 0.1 1.6 0.2
v 0.2 0 0.6
v 0.2 0 0.0999999
v 0.2 0.1 0.6
v 0.2 0.1 0.0999999
v 0.2 0.6 0.5
v 0.2 0.6 -1.19209e-07
v 0.2 0.8 0.5
v 0.2 0.8 -1.19209e-07
v -0.3 1.2 1.2
v -0.3 1.4 1.2
v -0.0999999 1.2 1.2
v -0.0999999 1.4 1.2
v -0.3 1 1
v -0.3 1.2 1
v -0.0999999 1 1
v -0.0999999 1.2 1
v -0.5 0.5 0.8
v -0.5 0.7 0.8
v -0.5 1.6 0.8
v -0.3 0.5 0.8
v -0.3 0.6 0.8
v -0.3 1 0.8
v -0.3 1.2 0.8
v -0.3 1.4 0.8
v -0.2 0.5 0.8
v -0.2 0.6 0.8
v -0.0999999 1 0.8
v -0.0999999 1.2 0.8
v -0.0999999 1.4 0.8
v 0.1 0.5 0.8
v 0.1 0.7 0.8
v 0.1 1.6 0.8
v -0.3 1.6 0.7
v -0.3 1.8 0.7
v -0.0999999 1.6 0.7
v -0.0999999 1.8 0.7
v -0.6 0 0.6
v -0.6 0.1 0.6
v -0.5 0 0.6
v -0.5 0.1 0.6
v -0.4 0 0.6
v -0.4 0.1 0.6
v -0.3 0 0.6
v -0.3 0.1 0.6
v -0.0999999 0 0.6
v -0.0999999 0.1 0.6
v 5.96046e-08 0 0.6
v 5.96046e-08 0.1 0.6
v 0.1 0 0.6
v 0.1 0.1 0.6
v 0.2 0 0.6
v 0.2 0.1 0.6
v -0.6 0.6 0.5
v -0.6 0.8 0.5
v -0.5 0.6 0.5
v -0.5 0.7 0.5
v -0.5 0.8 0.5
v 0.1 0.6 0.5
v 0.1 0.7 0.5
v 0.1 0.8 0.5
v 0.2 0.6 0.5
v 0.2 0.8 0.5
v -0.5 0 0.4
v -0.5 0.1 0.4
v -0.4 0 0.4
v -0.4 0.1 0.4
v 5.96046e-08 0 0.4
v 5.96046e-08 0.1 0.4
v 0.1 0 0.4
v 0.1 0.1 0.4
v -0.5 0.1 0.3
v -0.5 0.3 0.3
v -0.5 0.4 0.3
v -0.5 0.5 0.3
v -0.4 0.1 0.3
v -0.4 0.3 0.3
v -0.4 0.4 0.3
v -0.4 0.5 0.3
v 5.96046e-08 0.1 0.3
v 5.96046e-08 0.3 0.3
v 5.96046e-08 0.5 0.3
v 0.1 0.1 0.3
v 0.1 0.3 0.3
v 0.1 0.5 0.3
v -0.3 1.6 0.4
v -0.3 1.8 0.4
v -0.0999999 1.6 0.4
v -0.0999999 1.8 0.4
v -0.5 0.1 0.2
v -0.5 0.3 0.2
v -0.5 0.4 0.2
v -0.5 0.5 0.2
v -0.5 1 0.2
v -0.5 1.6 0.2
v -0.4 0.1 0.2
v -0.4 0.3 0.2
v -0.4 0.4 0.2
v -0.4 0.5 0.2
v 5.96046e-08 0.1 0.2
v 5.96046e-08 0.3 0.2
v 5.96046e-08 0.5 0.2
v 0.1 0.1 0.2
v 0.1 0.3 0.2
v 0.1 0.5 0.2
v 0.1 1 0.2
v 0.1 1.6 0.2
v -0.6 0 0.0999999
v -0.6 0.1 0.0999999
v -0.5 0.9 0.0999999
v -0.5 1 0.0999999
v -0.3 0 0.0999999
v -0.3 0.1 0.0999999
v -0.0999999 0 0.0999999
v -0.0999999 0.1 0.0999999
v 0.1 0.9 0.0999999
v 0.1 1 0.0999999
v 0.2 0 0.0999999
v 0.2 0.1 0.0999999
v -0.6 0.6 -1.19209e-07
v -0.6 0.8 -1.19209e-07
v -0.5 0.6 -1.19209e-07
v -0.5 0.7 -1.19209e-07
v -0.5 0.8 -1.19209e-07
v 0.1 0.6 -1.19209e-07
v 0.1 0.7 -1.19209e-07
v 0.1 0.8 -1.19209e-07
v 0.2 0.6 -1.19209e-07
v 0.2 0.8 -1.19209e-07
v -0.5 0.5 -0.2
v -0.5 0.7 -0.2
v -0.5 0.9 -0.2
v -0.4 0.6 -0.2
v -0.4 0.7 -0.2
v -0.4 0.8 -0.2
v -0.0999999 0.5 -0.2
v -0.0999999 0.6 -0.2
v 5.96046e-08 0.6 -0.2
v 5.96046e-08 0.7 -0.2
v 5.96046e-08 0.8 -0.2
v 0.1 0.5 -0.2
v 0.1 0.6 -0.2
v 0.1 0.7 -0.2
v 0.1 0.9 -0.2
v -0.4 0.6 -0.3
v -0.4 0.8 -0.3
v 5.96046e-08 0.6 -0.3
v 5.96046e-08 0.8 -0.3
v -0.6 0 0.6
v -0.5 0 0.6
v -0.4 0 0.6
v -0.3 0 0.6
v -0.0999999 0 0.6
v 5.96046e-08 0 0.6
v 0.1 0 0.6
v 0.2 0 0.6
v -0.5 0 0.4
v -0.4 0 0.4
v 5.96046e-08 0 0.4
v 0.1 0 0.4
v -0.6 0 0.0999999
v -0.3 0 0.0999999
v -0.0999999 0 0.0999999
v 0.2 0 0.0999999
v -0.5 0.5 0.8
v -0.3 0.5 0.8
v -0.2 0.5 0.8
v 0.1 0.5 0.8
v -0.5 0.5 0.7
v -0.4 0.5 0.7
v -0.3 0.5 0.7
v -0.2 0.5 0.7
v -0.0999999 0.5 0.7
v -0.5 0.5 0.6
v -0.4 0.5 0.6
v -0.5 0.5 0.4
v -0.4 0.5 0.4
v -0.5 0.5 0.3
v -0.4 0.5 0.3
v -0.0999999 0.5 0.3
v 5.96046e-08 0.5 0.3
v 0.1 0.5 0.3
v -0.5 0.5 0.2
v -0.4 0.5 0.2
v 5.96046e-08 0.5 0.2
v 0.1 0.5 0.2
v -0.5 0.5 -1.19209e-07
v -0.4 0.5 -1.19209e-07
v -0.5 0.5 -0.1
v -0.0999999 0.5 -0.1
v 5.96046e-08 0.5 -0.1
v 0.1 0.5 -0.1
v -0.5 0.5 -0.2
v -0.0999999 0.5 -0.2
v 0.1 0.5 -0.2
v -0.6 0.6 0.5
v -0.5 0.6 0.5
v 0.1 0.6 0.5
v 0.2 0.6 0.5
v -0.5 0.6 0.4
v -0.5 0.6 0.3
v 0.1 0.6 0.3
v 0.1 0.6 0.2
v -0.6 0.6 -1.19209e-07
v -0.5 0.6 -1.19209e-07
v 0.1 0.6 -1.19209e-07
v 0.2 0.6 -1.19209e-07
v -0.4 0.6 -0.2
v -0.0999999 0.6 -0.2
v 5.96046e-08 0.6 -0.2
v -0.4 0.6 -0.3
v 5.96046e-08 0.6 -0.3
v -0.3 1 1
v -0.0999999 1 1
v -0.3 1 0.8
v -0.0999999 1 0.8
v -0.3 1.2 1.2
v -0.0999999 1.2 1.2
v -0.3 1.2 1
v -0.0999999 1.2 1
v -0.6 0.1 0.6
v -0.5 0.1 0.6
v -0.4 0.1 0.6
v -0.3 0.1 0.6
v -0.0999999 0.1 0.6
v 5.96046e-08 0.1 0.6
v 0.1 0.1 0.6
v 0.2 0.1 0.6
v -0.5 0.1 0.4
v -0.4 0.1 0.4
v 5.96046e-08 0.1 0.4
v 0.1 0.1 0.4
v -0.5 0.1 0.3
v -0.4 0.1 0.3
v 5.96046e-08 0.1 0.3
v 0.1 0.1 0.3
v -0.5 0.1 0.2
v -0.4 0.1 0.2
v 5.96046e-08 0.1 0.2
v 0.1 0.1 0.2
v -0.6 0.1 0.0999999
v -0.3 0.1 0.0999999
v -0.0999999 0.1 0.0999999
v 0.2 0.1 0.0999999
v -0.6 0.8 0.5
v -0.5 0.8 0.5
v 0.1 0.8 0.5
v 0.2 0.8 0.5
v -0.6 0.8 -1.19209e-07
v -0.5 0.8 -1.19209e-07
v 0.1 0.8 -1.19209e-07
v 0.2 0.8 -1.19209e-07
v -0.4 0.8 -0.2
v 5.96046e-08 0.8 -0.2
v -0.4 0.8 -0.3
v 5.96046e-08 0.8 -0.3
v -0.5 0.9 0.0999999
v 0.1 0.9 0.0999999
v -0.5 0.9 -0.2
v 0.1 0.9 -0.2
v -0.5 1 0.2
v 0.1 1 0.2
v -0.5 1 0.0999999
v 0.1 1 0.0999999
v -0.3 1.4 1.2
v -0.0999999 1.4 1.2
v -0.3 1.4 0.8
v -0.0999999 1.4 0.8
v -0.5 1.6 0.8
v 0.1 1.6 0.8
v -0.3 1.6 0.7
v -0.0999999 1.6 0.7
v -0.3 1.6 0.4
v -0.0999999 1.6 0.4
v -0.5 1.6 0.2
v 0.1 1.6 0.2
v -0.3 1.8 0.7
v -0.0999999 1.8 0.7
v -0.3 1.8 0.4
v -0.0999999 1.8 0.4

# faces
f 3/2/1 2/2/1 1/2/1
f 4/2/1 2/2/1 3/2/1
f 7/6/1 6/6/1 5/6/1
f 8/6/1 6/6/1 7/6/1
f 11/3/1 10/3/1 9/3/1
f 12/3/1 10/3/1 11/3/1
f 13/2/1 12/2/1 11/2/1
f 14/2/1 12/2/1 13/2/1
f 19/3/1 14/3/1 13/3/1
f 20/3/1 14/3/1 19/3/1
f 24/3/1 16/3/1 15/3/1
f 24/4/1 17/4/1 16/4/1
f 25/3/1 18/3/1 17/3/1
f 25/4/1 17/4/1 24/4/1
f 26/3/1 18/3/1 25/3/1
f 27/4/1 19/4/1 18/4/1
f 27/3/1 18/3/1 26/3/1
f 28/3/1 20/3/1 19/3/1
f 28/4/1 19/4/1 27/4/1
f 28/3/1 21/3/1 20/3/1
f 29/4/1 22/4/1 21/4/1
f 29/3/1 21/3/1 28/3/1
f 30/3/1 23/3/1 22/3/1
f 30/4/1 22/4/1 29/4/1
f 31/3/1 24/3/1 15/3/1
f 31/3/1 26/3/1 25/3/1
f 31/3/1 25/3/1 24/3/1
f 32/3/1 26/3/1 31/3/1
f 33/3/1 30/3/1 29/3/1
f 34/3/1 23/3/1 30/3/1
f 34/3/1 30/3/1 33/3/1
f 35/4/1 32/4/1 31/4/1
f 36/4/1 34/4/1 33/4/1
f 37/4/1 36/4/1 35/4/1
f 38/4/1 34/4/1 36/4/1
f 38/4/1 36/4/1 37/4/1
f 39/4/1 37/4/1 35/4/1
f 40/4/1 37/4/1 39/4/1
f 41/4/1 35/4/1 31/4/1
f 41/4/1 39/4/1 35/4/1
f 42/4/1 39/4/1 41/4/1
f 43/4/1 41/4/1 31/4/1
f 43/8/1 42/8/1 41/8/1
f 44/4/1 39/4/1 42/4/1
f 44/8/1 42/8/1 43/8/1
f 45/4/1 43/4/1 31/4/1
f 45/4/1 44/4/1 43/4/1
f 46/4/1 39/4/1 44/4/1
f 46/4/1 44/4/1 45/4/1
f 49/2/1 48/2/1 47/2/1
f 50/2/1 48/2/1 49/2/1
f 53/6/1 52/6/1 51/6/1
f 54/6/1 52/6/1 53/6/1
f 55/6/1 52/6/1 54/6/1
f 59/7/1 57/7/1 56/7/1
f 60/7/1 57/7/1 59/7/1
f 61/2/1 59/2/1 58/2/1
f 61/2/1 60/2/1 59/2/1
f 62/2/1 60/2/1 61/2/1
f 65/7/1 64/7/1 63/7/1
f 66/7/1 64/7/1 65/7/1
f 69/2/1 68/2/1 67/2/1
f 70/2/1 68/2/1 69/2/1
f 73/2/1 72/2/1 71/2/1
f 74/2/1 72/2/1 73/2/1
f 75/3/1 74/3/1 73/3/1
f 76/3/1 74/3/1 75/3/1
f 79/2/1 78/2/1 77/2/1
f 80/2/1 78/2/1 79/2/1
f 81/2/2 82/2/2 83/2/2
f 83/2/2 82/2/2 84/2/2
f 85/3/2 86/3/2 87/3/2
f 87/3/2 86/3/2 88/3/2
f 87/2/2 88/2/2 89/2/2
f 89/2/2 88/2/2 90/2/2
f 89/3/2 90/3/2 91/3/2
f 91/3/2 90/3/2 92/3/2
f 93/2/2 94/2/2 95/2/2
f 95/2/2 94/2/2 96/2/2
f 97/7/2 98/7/2 100/7/2
f 100/7/2 98/7/2 101/7/2
f 99/2/2 100/2/2 102/2/2
f 100/2/2 101/2/2 102/2/2
f 102/2/2 101/2/2 103/2/2
f 104/7/2 105/7/2 106/7/2
f 106/7/2 105/7/2 107/7/2
f 108/2/2 109/2/2 110/2/2
f 110/2/2 109/2/2 111/2/2
f 112/6/2 113/6/2 114/6/2
f 114/6/2 113/6/2 115/6/2
f 115/6/2 113/6/2 116/6/2
f 117/2/2 118/2/2 119/2/2
f 119/2/2 118/2/2 120/2/2
f 119/3/2 120/3/2 122/3/2
f 122/3/2 120/3/2 123/3/2
f 121/3/2 122/3/2 126/3/2
f 122/4/2 123/4/2 127/4/2
f 126/3/2 122/3/2 127/3/2
f 123/3/2 124/3/2 128/3/2
f 127/4/2 123/4/2 128/4/2
f 128/3/2 124/3/2 129/3/2
f 124/4/2 125/4/2 130/4/2
f 129/3/2 124/3/2 130/3/2
f 130/4/2 125/4/2 131/4/2
f 121/3/2 126/3/2 132/3/2
f 132/3/2 126/3/2 133/3/2
f 130/3/2 131/3/2 134/3/2
f 129/3/2 130/3/2 134/3/2
f 134/3/2 131/3/2 135/3/2
f 132/4/2 133/4/2 136/4/2
f 134/4/2 135/4/2 137/4/2
f 136/4/2 137/4/2 138/4/2
f 137/4/2 135/4/2 139/4/2
f 138/4/2 137/4/2 139/4/2
f 136/4/2 138/4/2 140/4/2
f 140/4/2 138/4/2 141/4/2
f 132/4/2 136/4/2 142/4/2
f 136/4/2 140/4/2 142/4/2
f 142/4/2 140/4/2 143/4/2
f 132/4/2 142/4/2 144/4/2
f 142/8/2 143/8/2 144/8/2
f 143/4/2 140/4/2 145/4/2
f 144/8/2 143/8/2 145/8/2
f 132/4/2 144/4/2 146/4/2
f 144/4/2 145/4/2 146/4/2
f 145/4/2 140/4/2 147/4/2
f 146/4/2 145/4/2 147/4/2
f 148/2/2 149/2/2 150/2/2
f 150/2/2 149/2/2 151/2/2
f 152/6/2 153/6/2 154/6/2
f 154/6/2 153/6/2 155/6/2
f 158/2/3 157/2/3 156/2/3
f 159/2/3 157/2/3 158/2/3
f 162/7/3 161/7/3 160/7/3
f 163/7/3 161/7/3 162/7/3
f 167/3/3 165/3/3 164/3/3
f 168/3/3 165/3/3 167/3/3
f 169/4/3 166/4/3 165/4/3
f 170/4/3 166/4/3 169/4/3
f 171/4/3 166/4/3 170/4/3
f 172/5/3 168/5/3 167/5/3
f 173/3/3 165/3/3 168/3/3
f 173/5/3 168/5/3 172/5/3
f 174/4/3 169/4/3 165/4/3
f 176/4/3 166/4/3 171/4/3
f 177/3/3 173/3/3 172/3/3
f 178/4/3 175/4/3 174/4/3
f 178/3/3 173/3/3 177/3/3
f 178/3/3 165/3/3 173/3/3
f 178/4/3 176/4/3 175/4/3
f 178/4/3 174/4/3 165/4/3
f 179/4/3 166/4/3 176/4/3
f 179/4/3 176/4/3 178/4/3
f 182/7/3 181/7/3 180/7/3
f 183/7/3 181/7/3 182/7/3
f 186/2/3 185/2/3 184/2/3
f 187/2/3 185/2/3 186/2/3
f 190/2/3 189/2/3 188/2/3
f 191/2/3 189/2/3 190/2/3
f 194/2/3 193/2/3 192/2/3
f 195/2/3 193/2/3 194/2/3
f 198/2/3 197/2/3 196/2/3
f 199/2/3 197/2/3 198/2/3
f 202/6/3 201/6/3 200/6/3
f 203/6/3 201/6/3 202/6/3
f 204/6/3 201/6/3 203/6/3
f 208/6/3 206/6/3 205/6/3
f 208/6/3 207/6/3 206/6/3
f 209/6/3 207/6/3 208/6/3
f 212/2/3 211/2/3 210/2/3
f 213/2/3 211/2/3 212/2/3
f 216/2/3 215/2/3 214/2/3
f 217/2/3 215/2/3 216/2/3
f 222/3/3 219/3/3 218/3/3
f 223/2/3 220/2/3 219/2/3
f 223/3/3 219/3/3 222/3/3
f 224/3/3 221/3/3 220/3/3
f 224/2/3 220/2/3 223/2/3
f 225/3/3 221/3/3 224/3/3
f 229/2/3 227/2/3 226/2/3
f 230/3/3 228/3/3 227/3/3
f 230/2/3 227/2/3 229/2/3
f 231/3/3 228/3/3 230/3/3
f 232/7/4 233/7/4 234/7/4
f 234/7/4 233/7/4 235/7/4
f 236/3/4 237/3/4 242/3/4
f 237/2/4 238/2/4 243/2/4
f 242/3/4 237/3/4 243/3/4
f 238/3/4 239/3/4 244/3/4
f 243/2/4 238/2/4 244/2/4
f 244/3/4 239/3/4 245/3/4
f 246/2/4 247/2/4 249/2/4
f 247/3/4 248/3/4 250/3/4
f 249/2/4 247/2/4 250/2/4
f 250/3/4 248/3/4 251/3/4
f 240/4/4 241/4/4 252/4/4
f 252/4/4 241/4/4 253/4/4
f 254/2/4 255/2/4 258/2/4
f 258/2/4 255/2/4 259/2/4
f 256/4/4 257/4/4 262/4/4
f 262/4/4 257/4/4 263/4/4
f 260/2/4 261/2/4 264/2/4
f 264/2/4 261/2/4 265/2/4
f 266/6/4 267/6/4 268/6/4
f 268/6/4 267/6/4 269/6/4
f 269/6/4 267/6/4 270/6/4
f 271/6/4 272/6/4 274/6/4
f 272/6/4 273/6/4 274/6/4
f 274/6/4 273/6/4 275/6/4
f 276/3/4 277/3/4 279/3/4
f 277/4/4 278/4/4 280/4/4
f 279/3/4 277/3/4 280/3/4
f 280/4/4 278/4/4 281/4/4
f 276/3/4 279/3/4 282/3/4
f 282/3/4 279/3/4 283/3/4
f 282/4/4 283/4/4 284/4/4
f 281/4/4 278/4/4 286/4/4
f 282/4/4 284/4/4 287/4/4
f 284/3/4 285/3/4 288/3/4
f 287/4/4 284/4/4 288/4/4
f 285/4/4 286/4/4 289/4/4
f 288/3/4 285/3/4 289/3/4
f 286/4/4 278/4/4 290/4/4
f 289/4/4 286/4/4 290/4/4
f 291/6/4 292/6/4 293/6/4
f 293/6/4 292/6/4 294/6/4
f 303/2/5 296/2/5 295/2/5
f 304/2/5 298/2/5 297/2/5
f 305/2/5 300/2/5 299/2/5
f 306/2/5 302/2/5 301/2/5
f 307/2/5 303/2/5 295/2/5
f 307/2/5 304/2/5 303/2/5
f 308/2/5 298/2/5 304/2/5
f 308/2/5 304/2/5 307/2/5
f 309/2/5 305/2/5 299/2/5
f 309/2/5 306/2/5 305/2/5
f 310/2/5 302/2/5 306/2/5
f 310/2/5 306/2/5 309/2/5
f 315/3/5 312/3/5 311/3/5
f 316/3/5 312/3/5 315/3/5
f 317/5/5 313/5/5 312/5/5
f 317/3/5 312/3/5 316/3/5
f 318/3/5 314/3/5 313/3/5
f 318/5/5 313/5/5 317/5/5
f 319/3/5 314/3/5 318/3/5
f 320/4/5 316/4/5 315/4/5
f 321/1/5 317/1/5 316/1/5
f 321/4/5 316/4/5 320/4/5
f 321/1/5 318/1/5 317/1/5
f 321/1/5 319/1/5 318/1/5
f 322/3/5 321/3/5 320/3/5
f 323/1/5 319/1/5 321/1/5
f 323/3/5 321/3/5 322/3/5
f 324/4/5 323/4/5 322/4/5
f 325/1/5 319/1/5 323/1/5
f 325/4/5 323/4/5 324/4/5
f 326/3/5 314/3/5 319/3/5
f 326/1/5 319/1/5 325/1/5
f 327/3/5 314/3/5 326/3/5
f 328/3/5 314/3/5 327/3/5
f 330/4/5 326/4/5 325/4/5
f 330/4/5 327/4/5 326/4/5
f 331/4/5 327/4/5 330/4/5
f 333/3/5 330/3/5 329/3/5
f 334/4/5 331/4/5 330/4/5
f 334/3/5 330/3/5 333/3/5
f 335/4/5 334/4/5 333/4/5
f 336/4/5 331/4/5 334/4/5
f 336/4/5 334/4/5 335/4/5
f 337/3/5 332/3/5 331/3/5
f 337/4/5 331/4/5 336/4/5
f 338/3/5 332/3/5 337/3/5
f 339/3/5 336/3/5 335/3/5
f 340/4/5 337/4/5 336/4/5
f 340/3/5 336/3/5 339/3/5
f 340/4/5 338/4/5 337/4/5
f 341/4/5 338/4/5 340/4/5
f 346/6/5 343/6/5 342/6/5
f 347/6/5 346/6/5 342/6/5
f 348/6/5 345/6/5 344/6/5
f 349/6/5 345/6/5 348/6/5
f 350/6/5 347/6/5 342/6/5
f 351/6/5 347/6/5 350/6/5
f 352/6/5 345/6/5 349/6/5
f 353/6/5 345/6/5 352/6/5
f 357/6/5 355/6/5 354/6/5
f 357/6/5 356/6/5 355/6/5
f 358/6/5 356/6/5 357/6/5
f 361/7/5 360/7/5 359/7/5
f 362/7/5 360/7/5 361/7/5
f 365/2/5 364/2/5 363/2/5
f 366/2/5 364/2/5 365/2/5
f 367/2/6 368/2/6 375/2/6
f 369/2/6 370/2/6 376/2/6
f 371/2/6 372/2/6 377/2/6
f 373/2/6 374/2/6 378/2/6
f 367/2/6 375/2/6 379/2/6
f 375/2/6 376/2/6 379/2/6
f 376/2/6 370/2/6 380/2/6
f 379/2/6 376/2/6 380/2/6
f 371/2/6 377/2/6 381/2/6
f 377/2/6 378/2/6 381/2/6
f 378/2/6 374/2/6 382/2/6
f 381/2/6 378/2/6 382/2/6
f 367/2/6 379/2/6 383/2/6
f 380/2/6 370/2/6 384/2/6
f 371/2/6 381/2/6 385/2/6
f 382/2/6 374/2/6 386/2/6
f 367/2/6 383/2/6 387/2/6
f 383/2/6 384/2/6 387/2/6
f 384/2/6 370/2/6 388/2/6
f 387/2/6 384/2/6 388/2/6
f 385/2/6 386/2/6 389/2/6
f 371/2/6 385/2/6 389/2/6
f 386/2/6 374/2/6 390/2/6
f 389/2/6 386/2/6 390/2/6
f 391/6/6 392/6/6 395/6/6
f 395/6/6 392/6/6 396/6/6
f 393/6/6 394/6/6 397/6/6
f 397/6/6 394/6/6 398/6/6
f 399/6/6 400/6/6 401/6/6
f 401/6/6 400/6/6 402/6/6
f 403/4/6 404/4/6 405/4/6
f 405/4/6 404/4/6 406/4/6
f 407/4/6 408/4/6 409/4/6
f 409/4/6 408/4/6 410/4/6
f 411/2/6 412/2/6 413/2/6
f 413/2/6 412/2/6 414/2/6
f 415/4/6 416/4/6 417/4/6
f 417/4/6 416/4/6 418/4/6
f 415/4/6 417/4/6 419/4/6
f 418/4/6 416/4/6 420/4/6
f 415/4/6 419/4/6 421/4/6
f 419/4/6 420/4/6 421/4/6
f 420/4/6 416/4/6 422/4/6
f 421/4/6 420/4/6 422/4/6
f 423/7/6 424/7/6 425/7/6
f 425/7/6 424/7/6 426/7/6
