# MagicaVoxel @ Ephtracy

# group
o 

# material
mtllib mychick.mtl
usemtl palette

# normals
vn -1 0 0
vn 1 0 0
vn 0 0 1
vn 0 0 -1
vn 0 -1 0
vn 0 1 0

# texcoords
vt 0.0292969 0.5
vt 0.0917969 0.5
vt 0.841797 0.5
vt 0.958984 0.5
vt 0.962891 0.5
vt 0.966797 0.5
vt 0.994141 0.5

# verts
v -0.6 0 0.6
v -0.6 0 0.0999999
v -0.6 0.1 0.6
v -0.6 0.1 0.0999999
v -0.6 0.6 0.5
v -0.6 0.6 -1.19209e-07
v -0.6 0.8 0.5
v -0.6 0.8 -1.19209e-07
v -0.5 0.1 0.3
v -0.5 0.1 0.2
v -0.5 0.5 0.8
v -0.5 0.5 0.3
v -0.5 0.5 0.2
v -0.5 0.5 -0.2
v -0.5 0.6 0.5
v -0.5 0.6 -1.19209e-07
v -0.5 0.8 0.5
v -0.5 0.8 -1.19209e-07
v -0.5 0.9 0.0999999
v -0.5 0.9 -0.2
v -0.5 1 0.2
v -0.5 1 0.0999999
v -0.5 1.3 0.6
v -0.5 1.3 0.5
v -0.5 1.4 0.6
v -0.5 1.4 0.5
v -0.5 1.6 0.8
v -0.5 1.6 0.2
v -0.4 0 0.6
v -0.4 0 0.4
v -0.4 0.1 0.6
v -0.4 0.1 0.4
v -0.4 0.6 -0.2
v -0.4 0.6 -0.3
v -0.4 0.8 -0.2
v -0.4 0.8 -0.3
v -0.3 1 1
v -0.3 1 0.8
v -0.3 1.2 1.2
v -0.3 1.2 1
v -0.3 1.4 1.2
v -0.3 1.4 0.8
v -0.3 1.6 0.7
v -0.3 1.6 0.4
v -0.3 1.8 0.7
v -0.3 1.8 0.4
v -0.0999999 0 0.6
v -0.0999999 0 0.0999999
v -0.0999999 0.1 0.6
v -0.0999999 0.1 0.0999999
v 5.96046e-08 0.1 0.3
v 5.96046e-08 0.1 0.2
v 5.96046e-08 0.5 0.3
v 5.96046e-08 0.5 0.2
v 0.1 0 0.6
v 0.1 0 0.4
v 0.1 0.1 0.6
v 0.1 0.1 0.4
v -0.5 0 0.6
v -0.5 0 0.4
v -0.5 0.1 0.6
v -0.5 0.1 0.4
v -0.4 0.1 0.3
v -0.4 0.1 0.2
v -0.4 0.5 0.3
v -0.4 0.5 0.2
v -0.3 0 0.6
v -0.3 0 0.0999999
v -0.3 0.1 0.6
v -0.3 0.1 0.0999999
v -0.0999999 1 1
v -0.0999999 1 0.8
v -0.0999999 1.2 1.2
v -0.0999999 1.2 1
v -0.0999999 1.4 1.2
v -0.0999999 1.4 0.8
v -0.0999999 1.6 0.7
v -0.0999999 1.6 0.4
v -0.0999999 1.8 0.7
v -0.0999999 1.8 0.4
v 5.96046e-08 0 0.6
v 5.96046e-08 0 0.4
v 5.96046e-08 0.1 0.6
v 5.96046e-08 0.1 0.4
v 5.96046e-08 0.6 -0.2
v 5.96046e-08 0.6 -0.3
v 5.96046e-08 0.8 -0.2
v 5.96046e-08 0.8 -0.3
v 0.1 0.1 0.3
v 0.1 0.1 0.2
v 0.1 0.5 0.8
v 0.1 0.5 0.3
v 0.1 0.5 0.2
v 0.1 0.5 -0.2
v 0.1 0.6 0.5
v 0.1 0.6 -1.19209e-07
v 0.1 0.8 0.5
v 0.1 0.8 -1.19209e-07
v 0.1 0.9 0.0999999
v 0.1 0.9 -0.2
v 0.1 1 0.2
v 0.1 1 0.0999999
v 0.1 1.3 0.6
v 0.1 1.3 0.5
v 0.1 1.4 0.6
v 0.1 1.4 0.5
v 0.1 1.6 0.8
v 0.1 1.6 0.2
v 0.2 0 0.6
v 0.2 0 0.0999999
v 0.2 0.1 0.6
v 0.2 0.1 0.0999999
v 0.2 0.6 0.5
v 0.2 0.6 -1.19209e-07
v 0.2 0.8 0.5
v 0.2 0.8 -1.19209e-07
v -0.3 1.2 1.2
v -0.3 1.4 1.2
v -0.0999999 1.2 1.2
v -0.0999999 1.4 1.2
v -0.3 1 1
v -0.3 1.2 1
v -0.0999999 1 1
v -0.0999999 1.2 1
v -0.5 0.5 0.8
v -0.5 1.6 0.8
v -0.3 1 0.8
v -0.3 1.4 0.8
v -0.0999999 1 0.8
v -0.0999999 1.4 0.8
v 0.1 0.5 0.8
v 0.1 1.6 0.8
v -0.3 1.6 0.7
v -0.3 1.8 0.7
v -0.0999999 1.6 0.7
v -0.0999999 1.8 0.7
v -0.6 0 0.6
v -0.6 0.1 0.6
v -0.5 0 0.6
v -0.5 0.1 0.6
v -0.4 0 0.6
v -0.4 0.1 0.6
v -0.3 0 0.6
v -0.3 0.1 0.6
v -0.0999999 0 0.6
v -0.0999999 0.1 0.6
v 5.96046e-08 0 0.6
v 5.96046e-08 0.1 0.6
v 0.1 0 0.6
v 0.1 0.1 0.6
v 0.2 0 0.6
v 0.2 0.1 0.6
v -0.6 0.6 0.5
v -0.6 0.8 0.5
v -0.5 0.6 0.5
v -0.5 0.8 0.5
v 0.1 0.6 0.5
v 0.1 0.8 0.5
v 0.2 0.6 0.5
v 0.2 0.8 0.5
v -0.5 0 0.4
v -0.5 0.1 0.4
v -0.4 0 0.4
v -0.4 0.1 0.4
v 5.96046e-08 0 0.4
v 5.96046e-08 0.1 0.4
v 0.1 0 0.4
v 0.1 0.1 0.4
v -0.5 0.1 0.3
v -0.5 0.5 0.3
v -0.4 0.1 0.3
v -0.4 0.5 0.3
v 5.96046e-08 0.1 0.3
v 5.96046e-08 0.5 0.3
v 0.1 0.1 0.3
v 0.1 0.5 0.3
v -0.3 1.6 0.4
v -0.3 1.8 0.4
v -0.0999999 1.6 0.4
v -0.0999999 1.8 0.4
v -0.5 0.1 0.2
v -0.5 0.5 0.2
v -0.5 1 0.2
v -0.5 1.6 0.2
v -0.4 0.1 0.2
v -0.4 0.5 0.2
v 5.96046e-08 0.1 0.2
v 5.96046e-08 0.5 0.2
v 0.1 0.1 0.2
v 0.1 0.5 0.2
v 0.1 1 0.2
v 0.1 1.6 0.2
v -0.6 0 0.0999999
v -0.6 0.1 0.0999999
v -0.5 0.9 0.0999999
v -0.5 1 0.0999999
v -0.3 0 0.0999999
v -0.3 0.1 0.0999999
v -0.0999999 0 0.0999999
v -0.0999999 0.1 0.0999999
v 0.1 0.9 0.0999999
v 0.1 1 0.0999999
v 0.2 0 0.0999999
v 0.2 0.1 0.0999999
v -0.6 0.6 -1.19209e-07
v -0.6 0.8 -1.19209e-07
v -0.5 0.6 -1.19209e-07
v -0.5 0.8 -1.19209e-07
v 0.1 0.6 -1.19209e-07
v 0.1 0.8 -1.19209e-07
v 0.2 0.6 -1.19209e-07
v 0.2 0.8 -1.19209e-07
v -0.5 0.5 -0.2
v -0.5 0.9 -0.2
v -0.4 0.6 -0.2
v -0.4 0.8 -0.2
v 5.96046e-08 0.6 -0.2
v 5.96046e-08 0.8 -0.2
v 0.1 0.5 -0.2
v 0.1 0.9 -0.2
v -0.4 0.6 -0.3
v -0.4 0.8 -0.3
v 5.96046e-08 0.6 -0.3
v 5.96046e-08 0.8 -0.3
v -0.6 0 0.6
v -0.5 0 0.6
v -0.4 0 0.6
v -0.3 0 0.6
v -0.0999999 0 0.6
v 5.96046e-08 0 0.6
v 0.1 0 0.6
v 0.2 0 0.6
v -0.5 0 0.4
v -0.4 0 0.4
v 5.96046e-08 0 0.4
v 0.1 0 0.4
v -0.6 0 0.0999999
v -0.3 0 0.0999999
v -0.0999999 0 0.0999999
v 0.2 0 0.0999999
v -0.5 0.5 0.8
v 0.1 0.5 0.8
v -0.4 0.5 0.7
v 5.96046e-08 0.5 0.7
v -0.5 0.5 0.3
v -0.4 0.5 0.3
v 5.96046e-08 0.5 0.3
v 0.1 0.5 0.3
v -0.5 0.5 0.2
v -0.4 0.5 0.2
v 5.96046e-08 0.5 0.2
v 0.1 0.5 0.2
v -0.4 0.5 -0.1
v 5.96046e-08 0.5 -0.1
v -0.5 0.5 -0.2
v 0.1 0.5 -0.2
v -0.6 0.6 0.5
v -0.5 0.6 0.5
v 0.1 0.6 0.5
v 0.2 0.6 0.5
v -0.6 0.6 -1.19209e-07
v -0.5 0.6 -1.19209e-07
v 0.1 0.6 -1.19209e-07
v 0.2 0.6 -1.19209e-07
v -0.4 0.6 -0.2
v 5.96046e-08 0.6 -0.2
v -0.4 0.6 -0.3
v 5.96046e-08 0.6 -0.3
v -0.3 1 1
v -0.0999999 1 1
v -0.3 1 0.8
v -0.0999999 1 0.8
v -0.3 1.2 1.2
v -0.0999999 1.2 1.2
v -0.3 1.2 1
v -0.0999999 1.2 1
v -0.6 0.1 0.6
v -0.5 0.1 0.6
v -0.4 0.1 0.6
v -0.3 0.1 0.6
v -0.0999999 0.1 0.6
v 5.96046e-08 0.1 0.6
v 0.1 0.1 0.6
v 0.2 0.1 0.6
v -0.5 0.1 0.4
v -0.4 0.1 0.4
v 5.96046e-08 0.1 0.4
v 0.1 0.1 0.4
v -0.5 0.1 0.3
v -0.4 0.1 0.3
v 5.96046e-08 0.1 0.3
v 0.1 0.1 0.3
v -0.5 0.1 0.2
v -0.4 0.1 0.2
v 5.96046e-08 0.1 0.2
v 0.1 0.1 0.2
v -0.6 0.1 0.0999999
v -0.3 0.1 0.0999999
v -0.0999999 0.1 0.0999999
v 0.2 0.1 0.0999999
v -0.6 0.8 0.5
v -0.5 0.8 0.5
v 0.1 0.8 0.5
v 0.2 0.8 0.5
v -0.6 0.8 -1.19209e-07
v -0.5 0.8 -1.19209e-07
v 0.1 0.8 -1.19209e-07
v 0.2 0.8 -1.19209e-07
v -0.4 0.8 -0.2
v 5.96046e-08 0.8 -0.2
v -0.4 0.8 -0.3
v 5.96046e-08 0.8 -0.3
v -0.5 0.9 0.0999999
v 0.1 0.9 0.0999999
v -0.5 0.9 -0.2
v 0.1 0.9 -0.2
v -0.5 1 0.2
v 0.1 1 0.2
v -0.5 1 0.0999999
v 0.1 1 0.0999999
v -0.3 1.4 1.2
v -0.0999999 1.4 1.2
v -0.3 1.4 0.8
v -0.0999999 1.4 0.8
v -0.5 1.6 0.8
v 0.1 1.6 0.8
v -0.3 1.6 0.7
v -0.0999999 1.6 0.7
v -0.3 1.6 0.4
v -0.0999999 1.6 0.4
v -0.5 1.6 0.2
v 0.1 1.6 0.2
v -0.3 1.8 0.7
v -0.0999999 1.8 0.7
v -0.3 1.8 0.4
v -0.0999999 1.8 0.4

# faces
f 3/2/1 2/2/1 1/2/1
f 4/2/1 2/2/1 3/2/1
f 7/4/1 6/4/1 5/4/1
f 8/4/1 6/4/1 7/4/1
f 12/2/1 10/2/1 9/2/1
f 13/2/1 10/2/1 12/2/1
f 15/6/1 12/6/1 11/6/1
f 15/6/1 14/6/1 13/6/1
f 15/6/1 13/6/1 12/6/1
f 16/6/1 14/6/1 15/6/1
f 17/6/1 15/6/1 11/6/1
f 18/6/1 14/6/1 16/6/1
f 19/6/1 18/6/1 17/6/1
f 20/6/1 14/6/1 18/6/1
f 20/6/1 18/6/1 19/6/1
f 21/6/1 19/6/1 17/6/1
f 22/6/1 19/6/1 21/6/1
f 23/6/1 17/6/1 11/6/1
f 23/6/1 21/6/1 17/6/1
f 24/6/1 21/6/1 23/6/1
f 25/6/1 23/6/1 11/6/1
f 25/7/1 24/7/1 23/7/1
f 26/6/1 21/6/1 24/6/1
f 26/7/1 24/7/1 25/7/1
f 27/6/1 25/6/1 11/6/1
f 27/6/1 26/6/1 25/6/1
f 28/6/1 21/6/1 26/6/1
f 28/6/1 26/6/1 27/6/1
f 31/2/1 30/2/1 29/2/1
f 32/2/1 30/2/1 31/2/1
f 35/4/1 34/4/1 33/4/1
f 36/4/1 34/4/1 35/4/1
f 40/2/1 38/2/1 37/2/1
f 41/2/1 40/2/1 39/2/1
f 42/2/1 38/2/1 40/2/1
f 42/2/1 40/2/1 41/2/1
f 45/3/1 44/3/1 43/3/1
f 46/3/1 44/3/1 45/3/1
f 49/2/1 48/2/1 47/2/1
f 50/2/1 48/2/1 49/2/1
f 53/2/1 52/2/1 51/2/1
f 54/2/1 52/2/1 53/2/1
f 57/2/1 56/2/1 55/2/1
f 58/2/1 56/2/1 57/2/1
f 59/2/2 60/2/2 61/2/2
f 61/2/2 60/2/2 62/2/2
f 63/2/2 64/2/2 65/2/2
f 65/2/2 64/2/2 66/2/2
f 67/2/2 68/2/2 69/2/2
f 69/2/2 68/2/2 70/2/2
f 71/2/2 72/2/2 74/2/2
f 73/2/2 74/2/2 75/2/2
f 74/2/2 72/2/2 76/2/2
f 75/2/2 74/2/2 76/2/2
f 77/3/2 78/3/2 79/3/2
f 79/3/2 78/3/2 80/3/2
f 81/2/2 82/2/2 83/2/2
f 83/2/2 82/2/2 84/2/2
f 85/4/2 86/4/2 87/4/2
f 87/4/2 86/4/2 88/4/2
f 89/2/2 90/2/2 92/2/2
f 92/2/2 90/2/2 93/2/2
f 91/6/2 92/6/2 95/6/2
f 93/6/2 94/6/2 95/6/2
f 92/6/2 93/6/2 95/6/2
f 95/6/2 94/6/2 96/6/2
f 91/6/2 95/6/2 97/6/2
f 96/6/2 94/6/2 98/6/2
f 97/6/2 98/6/2 99/6/2
f 98/6/2 94/6/2 100/6/2
f 99/6/2 98/6/2 100/6/2
f 97/6/2 99/6/2 101/6/2
f 101/6/2 99/6/2 102/6/2
f 91/6/2 97/6/2 103/6/2
f 97/6/2 101/6/2 103/6/2
f 103/6/2 101/6/2 104/6/2
f 91/6/2 103/6/2 105/6/2
f 103/7/2 104/7/2 105/7/2
f 104/6/2 101/6/2 106/6/2
f 105/7/2 104/7/2 106/7/2
f 91/6/2 105/6/2 107/6/2
f 105/6/2 106/6/2 107/6/2
f 106/6/2 101/6/2 108/6/2
f 107/6/2 106/6/2 108/6/2
f 109/2/2 110/2/2 111/2/2
f 111/2/2 110/2/2 112/2/2
f 113/4/2 114/4/2 115/4/2
f 115/4/2 114/4/2 116/4/2
f 119/2/3 118/2/3 117/2/3
f 120/2/3 118/2/3 119/2/3
f 123/2/3 122/2/3 121/2/3
f 124/2/3 122/2/3 123/2/3
f 127/6/3 126/6/3 125/6/3
f 128/6/3 126/6/3 127/6/3
f 129/6/3 127/6/3 125/6/3
f 130/6/3 126/6/3 128/6/3
f 131/6/3 129/6/3 125/6/3
f 131/6/3 130/6/3 129/6/3
f 132/6/3 126/6/3 130/6/3
f 132/6/3 130/6/3 131/6/3
f 135/3/3 134/3/3 133/3/3
f 136/3/3 134/3/3 135/3/3
f 139/2/3 138/2/3 137/2/3
f 140/2/3 138/2/3 139/2/3
f 143/2/3 142/2/3 141/2/3
f 144/2/3 142/2/3 143/2/3
f 147/2/3 146/2/3 145/2/3
f 148/2/3 146/2/3 147/2/3
f 151/2/3 150/2/3 149/2/3
f 152/2/3 150/2/3 151/2/3
f 155/4/3 154/4/3 153/4/3
f 156/4/3 154/4/3 155/4/3
f 159/4/3 158/4/3 157/4/3
f 160/4/3 158/4/3 159/4/3
f 163/2/3 162/2/3 161/2/3
f 164/2/3 162/2/3 163/2/3
f 167/2/3 166/2/3 165/2/3
f 168/2/3 166/2/3 167/2/3
f 171/2/3 170/2/3 169/2/3
f 172/2/3 170/2/3 171/2/3
f 175/2/3 174/2/3 173/2/3
f 176/2/3 174/2/3 175/2/3
f 177/3/4 178/3/4 179/3/4
f 179/3/4 178/3/4 180/3/4
f 181/2/4 182/2/4 185/2/4
f 185/2/4 182/2/4 186/2/4
f 187/2/4 188/2/4 189/2/4
f 189/2/4 188/2/4 190/2/4
f 183/6/4 184/6/4 191/6/4
f 191/6/4 184/6/4 192/6/4
f 193/2/4 194/2/4 197/2/4
f 197/2/4 194/2/4 198/2/4
f 195/6/4 196/6/4 201/6/4
f 201/6/4 196/6/4 202/6/4
f 199/2/4 200/2/4 203/2/4
f 203/2/4 200/2/4 204/2/4
f 205/4/4 206/4/4 207/4/4
f 207/4/4 206/4/4 208/4/4
f 209/4/4 210/4/4 211/4/4
f 211/4/4 210/4/4 212/4/4
f 213/6/4 214/6/4 215/6/4
f 215/6/4 214/6/4 216/6/4
f 213/6/4 215/6/4 217/6/4
f 216/6/4 214/6/4 218/6/4
f 213/6/4 217/6/4 219/6/4
f 217/6/4 218/6/4 219/6/4
f 218/6/4 214/6/4 220/6/4
f 219/6/4 218/6/4 220/6/4
f 221/4/4 222/4/4 223/4/4
f 223/4/4 222/4/4 224/4/4
f 233/2/5 226/2/5 225/2/5
f 234/2/5 228/2/5 227/2/5
f 235/2/5 230/2/5 229/2/5
f 236/2/5 232/2/5 231/2/5
f 237/2/5 233/2/5 225/2/5
f 237/2/5 234/2/5 233/2/5
f 238/2/5 228/2/5 234/2/5
f 238/2/5 234/2/5 237/2/5
f 239/2/5 235/2/5 229/2/5
f 239/2/5 236/2/5 235/2/5
f 240/2/5 232/2/5 236/2/5
f 240/2/5 236/2/5 239/2/5
f 243/6/5 242/6/5 241/6/5
f 244/6/5 242/6/5 243/6/5
f 245/6/5 243/6/5 241/6/5
f 246/1/5 244/1/5 243/1/5
f 246/6/5 243/6/5 245/6/5
f 247/6/5 242/6/5 244/6/5
f 247/1/5 244/1/5 246/1/5
f 248/6/5 242/6/5 247/6/5
f 250/5/5 247/5/5 246/5/5
f 251/5/5 247/5/5 250/5/5
f 253/6/5 250/6/5 249/6/5
f 253/5/5 251/5/5 250/5/5
f 254/6/5 252/6/5 251/6/5
f 254/5/5 251/5/5 253/5/5
f 255/6/5 253/6/5 249/6/5
f 255/6/5 254/6/5 253/6/5
f 256/6/5 252/6/5 254/6/5
f 256/6/5 254/6/5 255/6/5
f 261/4/5 258/4/5 257/4/5
f 262/4/5 258/4/5 261/4/5
f 263/4/5 260/4/5 259/4/5
f 264/4/5 260/4/5 263/4/5
f 267/4/5 266/4/5 265/4/5
f 268/4/5 266/4/5 267/4/5
f 271/2/5 270/2/5 269/2/5
f 272/2/5 270/2/5 271/2/5
f 275/2/5 274/2/5 273/2/5
f 276/2/5 274/2/5 275/2/5
f 277/2/6 278/2/6 285/2/6
f 279/2/6 280/2/6 286/2/6
f 281/2/6 282/2/6 287/2/6
f 283/2/6 284/2/6 288/2/6
f 277/2/6 285/2/6 289/2/6
f 285/2/6 286/2/6 289/2/6
f 286/2/6 280/2/6 290/2/6
f 289/2/6 286/2/6 290/2/6
f 281/2/6 287/2/6 291/2/6
f 287/2/6 288/2/6 291/2/6
f 288/2/6 284/2/6 292/2/6
f 291/2/6 288/2/6 292/2/6
f 277/2/6 289/2/6 293/2/6
f 290/2/6 280/2/6 294/2/6
f 281/2/6 291/2/6 295/2/6
f 292/2/6 284/2/6 296/2/6
f 277/2/6 293/2/6 297/2/6
f 293/2/6 294/2/6 297/2/6
f 294/2/6 280/2/6 298/2/6
f 297/2/6 294/2/6 298/2/6
f 295/2/6 296/2/6 299/2/6
f 281/2/6 295/2/6 299/2/6
f 296/2/6 284/2/6 300/2/6
f 299/2/6 296/2/6 300/2/6
f 301/4/6 302/4/6 305/4/6
f 305/4/6 302/4/6 306/4/6
f 303/4/6 304/4/6 307/4/6
f 307/4/6 304/4/6 308/4/6
f 309/4/6 310/4/6 311/4/6
f 311/4/6 310/4/6 312/4/6
f 313/6/6 314/6/6 315/6/6
f 315/6/6 314/6/6 316/6/6
f 317/6/6 318/6/6 319/6/6
f 319/6/6 318/6/6 320/6/6
f 321/2/6 322/2/6 323/2/6
f 323/2/6 322/2/6 324/2/6
f 325/6/6 326/6/6 327/6/6
f 327/6/6 326/6/6 328/6/6
f 325/6/6 327/6/6 329/6/6
f 328/6/6 326/6/6 330/6/6
f 325/6/6 329/6/6 331/6/6
f 329/6/6 330/6/6 331/6/6
f 330/6/6 326/6/6 332/6/6
f 331/6/6 330/6/6 332/6/6
f 333/3/6 334/3/6 335/3/6
f 335/3/6 334/3/6 336/3/6
